<?xml version="1.0" encoding="utf-8"?>
<!-- Generator: Adobe Illustrator 22.0.1, SVG Export Plug-In . SVG Version: 6.00 Build 0)  -->
<svg version="1.1" id="a" xmlns="http://www.w3.org/2000/svg" xmlns:xlink="http://www.w3.org/1999/xlink" x="0px" y="0px"
	 viewBox="0 0 150.9 200" style="enable-background:new 0 0 150.9 200;" xml:space="preserve">
<style type="text/css">
	.st0{fill:none;stroke:#FDD031;stroke-width:4;stroke-miterlimit:10;}
</style>
<path class="st0" d="M35.1,182.8c-0.2-12.3-0.4-24.4-0.6-36.7"/>
<path class="st0" d="M63.7,145.5c-2.6,2-10.7,7.6-20,5.9c-2-0.4-9.2-2-18.4-15.7c-3.3-5-23.1-35.6-11.9-70.7
	c2.1-6.7,7.4-12.7,9.1-15.6"/>
<path class="st0" d="M23.8,45.2c-1.9,3.2-1.1,6.6-0.6,9.2c4.8,21.5,7.2,32.1,14.6,34.5c0.7,0.3,3.3,1.1,5.9,0
	c0.9-0.4,6.2-1.7,5.4-8.1c-2.1-16-3.4-18.6-5.6-27.5c-1.7-7.1-0.7-11.9-9-13C30.6,39.8,25.8,41.6,23.8,45.2z"/>
<path class="st0" d="M41,41.3c0.1-5.3,3.3-10,8.1-11.9c5.4-2,11.7-0.1,15.1,4.8c0.3-0.9,2.4-7.6,9.2-10.2c5-2,9.4-0.5,10.8,0
	c6.3,2.1,9.1,7.4,9.8,8.6c0.6-1.3,1.8-3.7,4.3-5.4c3.8-2.5,9-2.4,13.5,0"/>
<path class="st0" d="M35.1,182.8c10.6,4.4,19.9,5.6,25.9,5.9c5.5,0.3,13.4,0.7,23.2-2.1c9.3-2.7,16-7.2,20-10.2
	c-0.2-11.5-0.4-23-0.6-34.5"/>
<path class="st0" d="M45.6,87.5c0.3,5.6,4.3,10.1,9.4,11.1c4.1,0.7,8.8-0.8,11.3-4.8c3.1-4.9,0.7-10.2,0.5-10.6
	c-0.1-17-4.8-32.9-1-52.4"/>
<path class="st0" d="M68.8,92.8c-1.5,2.4-6,10.3-4.6,20.5c1.3,8.8,6.3,14.4,8.7,17.1c2.7,3,8,8.8,17.1,10.6
	c1.9,0.4,10.6,2.1,18.5-2.8c3.3-2.1,5.4-4.7,7-7c7.3-10.5,12.1-23.1,14.8-31.9c3.5-15.5,7.1-31,10.6-46.6c-0.2-2.2-0.7-5.7-1.9-9.7
	c-2-6.7-4.4-9.2-6-13.8c-1.2-3.6-2.2-9.2-0.5-17.1c-2.2-0.7-6.7-1.6-11.1,0.5c-9.2,4.3-9.6,18.1-9.7,21.2c-0.1,3.3,0.2,9.7,4.2,17.1
	c-2.3,3.1-3.7,5.9-4.6,8.3c-1.8,4.6-1.3,6.6-3.3,13.4c-1.4,4.6-2,7.1-3.7,8.7c-3.2,3.3-8.4,4.8-12.9,3.7c-1.3-0.4-4.5-1.1-6-3.7
	c-1.8-3-0.6-6.4,0.5-10.1c2.7-10-0.1-8.8,2.8-21.6c0.9-4.4,2.5-10.2,5.2-16.9"/>
<path class="st0" d="M67.4,91.5c3.2,3.5,8.1,4.8,12.5,3.4c4.7-1.5,8-5.9,8.3-10.9"/>
</svg>
