<?xml version="1.0" encoding="utf-8"?>
<!-- Generator: Adobe Illustrator 22.0.1, SVG Export Plug-In . SVG Version: 6.00 Build 0)  -->
<svg version="1.1" id="Layer_1" xmlns="http://www.w3.org/2000/svg" xmlns:xlink="http://www.w3.org/1999/xlink" x="0px" y="0px"
	 viewBox="0 0 200 200" style="enable-background:new 0 0 200 200;" xml:space="preserve">
<style type="text/css">
	.st0{fill:none;stroke:#FDD133;stroke-width:4;stroke-miterlimit:10;}
</style>
<g>
	<path class="st0" d="M121.9,157.9c-0.9,10.8-1.7,21.5-2.6,32.4c-3.6,2-8.8,4.5-15.7,5.8c-9.9,1.9-17.8,0.5-22.8-0.4
		c-4.3-0.8-10.1-2.3-16.5-5.4c1.6-8.7,3.3-17.6,4.9-26.3"/>
	<path class="st0" d="M80.5,165.3"/>
	<path class="st0" d="M77.7,165.3C74,166,69,165,67,162c-15-21-14-47-8.7-69.7"/>
	<path class="st0" d="M73.4,80.6C68.6,66.9,64.8,54,59.5,38.1C58.7,35.4,56,35,53,36c-2,1-3,3-3,5c2,17,6,34,8.3,51.3"/>
	<path class="st0" d="M90.7,73.9C88,53,93,31,87.8,11.3"/>
	<path class="st0" d="M108.6,73.2c-0.6-15.3-1.3-30.9-2.4-46.8c-0.4-6.2-0.8-12.4-1.3-18.6c-0.2-0.3-2.3-4.4-6.8-4.8
		c-3.7-0.3-6.1,2-6.8,2.6c-2.9,2.7-3,6.4-3,7.1"/>
	<path class="st0" d="M110.4,166.8c1.7-0.4,4.4-1.1,7.1-2.9c4.6-3,6.2-6.7,10.5-13c1.8-2.6,4.5-6.4,8.4-10.9
		c2.2-10.2,4.5-20.4,6.7-30.5c-2.5-2.8-5.4-6.7-7.9-11.7c-2-3.8-3.3-7.4-4.2-10.5c-1.9,0-6.4,0.2-10.5,3.3c-7.6,5.9-6,16.5-5.9,17.6
		c1.3,7.9,6.9,12.3,8.4,13.4"/>
	<path class="st0" d="M97.1,122.8c5-3.1,9.4-4.9,12.5-5.9c3-1,7.2-2.3,8.2-0.9s-2.6,4.1-3.2,8.8c-0.5,3.6,1,6.8,2.5,9.2"/>
	<path class="st0" d="M116.7,95.1c-1.5-0.8-3.6-2.1-5-4.4c-2.4-4-1.1-8-0.8-14.2c0.1-3.3,0-8-1.3-13.8c0.9-1.2,3.5-4.1,7.9-5.4
		c3.3-1,6.1-0.7,7.5-0.4c1.1,2,2.4,4.9,3.5,8.4c1.2,3.9,1.6,7,1.9,10.3c0.3,3,0.6,7.1,0.4,11.8"/>
	<path class="st0" d="M86.7,76.2c2.5-0.7,5-1.5,7.5-2.2"/>
	<path class="st0" d="M104.3,73.6c1.8,0,3.6,0,5.4,0"/>
</g>
<path class="st0" d="M75.1,80.6c-2.4-18.9-4.9-37.8-7.3-56.6c-1.5-6.6,1.6-11.6,4.5-12c2.5-0.4,6.2,2.8,7.5,7.9
	c3.4,18.5,6.8,36.9,10.2,55.4"/>
<path class="st0" d="M69.1,81.1c2.1-0.8,4.2-1.5,6.3-2.3"/>
</svg>
