<?xml version="1.0" encoding="utf-8"?>
<!-- Generator: Adobe Illustrator 22.0.1, SVG Export Plug-In . SVG Version: 6.00 Build 0)  -->
<svg version="1.1" id="Layer_1" xmlns="http://www.w3.org/2000/svg" xmlns:xlink="http://www.w3.org/1999/xlink" x="0px" y="0px"
	 viewBox="0 0 200 200" style="enable-background:new 0 0 200 200;" xml:space="preserve">
<style type="text/css">
	.st0{fill:none;stroke:#FDD133;stroke-width:4;stroke-miterlimit:10;}
</style>
<path class="st0" d="M168.9,122.3c-5.7,10.6-20.1,13.6-30.9,15.6c-13.4,2.5-27.1,2.5-40.7,1.2"/>
<path class="st0" d="M86.5,129.7c-0.2,0.6-1.3,3.5,0.2,6c0.3,0.5,1.1,1.7,3.7,2.7c6.7,2.6,14-1,16.4-2.1c2.2-1,1.1-0.8,5.8-3.5
	c6.2-3.5,8.2-4,9.8-6.5c0.5-0.9,2.2-3.6,1.2-6.3c-1.1-2.9-4.4-3.7-4.8-3.8"/>
<path class="st0" d="M170.1,86c0.9-14-13.7-25.6-26.9-25.6c-16.1,0-13.1,13.1-33.6,26.3c-7.2,4.6,4.4,16.1,13.2,14.6
	c10.2-2.9,17.5-11.7,19.4-21.6"/>
<path class="st0" d="M150.8,84.5"/>
<path class="st0" d="M150.8,84.5c-3.7,0.9-7.4,1.8-11.1,2.7"/>
<path class="st0" d="M132.1,63.1c-5.9-2.2-14.9-2.9-25.8-2c-16.1,1.4-9.8-0.1-29.6,3.2c-25,4.1-46.9,11.2-70.4,17.3
	c-0.3,0.2-4.3,3.2-4,8.1c0.1,2.5,1.4,6,4.6,7.3c1.9,0.8,3.8,0.4,4.6,0.2c21.4-3.7,54.7-9.6,76-13.4C69.2,87,61,90.6,58.8,96.4
	c-0.8,2.2-0.8,4.7-0.7,5.4c0.1,5.4,2.8,9.2,4,10.8c9,0.8,16.3,0.3,21.4-0.4c9-1.2,24.2-3.1,26.2-10.6c0.6-2.3-0.6-5.2-0.8-5.8
	c-0.3-0.9-1.8-4.9-5.4-6.5c-2.4-1.1-4.1-0.5-11.2,0.8c-5.2,0.9,5.4-1.1-10,1.5c-4.1,0.7-9.4,1.6-15.6,2.8"/>
<path class="st0" d="M72.2,113c-0.4,0.7-2.4,4-1.5,8.3c1.2,5.3,5.9,7.4,6.5,7.7c5,2.2,9.6-0.3,10.2-0.6c4.7-3.3,8.8-5.2,11.7-6.3
	c5.8-2.3,11.2-3.4,18.7-7.7c2.9-1.7,5-3.2,5.2-5.4c0.3-3-2.9-5.3-3.3-5.6c-4.4-3.2-10.3-0.6-10.7-0.4"/>
<path class="st0" d="M122.8,101.3c3.7,5.5,9.7,9.1,16.3,9.9"/>
<path class="st0" d="M157.2,132.5c5.6,2.7,11.1,5.5,16.7,8.2c3.7-1.7,11.4-5.8,17.2-14.6c9.2-13.9,6.4-28.7,5.7-31.8
	c-9-4.3-17.9-8.7-26.9-13"/>
</svg>
