<?xml version="1.0" encoding="utf-8"?>
<!-- Generator: Adobe Illustrator 22.0.1, SVG Export Plug-In . SVG Version: 6.00 Build 0)  -->
<svg version="1.1" id="Layer_1" xmlns="http://www.w3.org/2000/svg" xmlns:xlink="http://www.w3.org/1999/xlink" x="0px" y="0px"
	 viewBox="0 0 200 200" style="enable-background:new 0 0 200 200;" xml:space="preserve">
<style type="text/css">
	.st0{fill:none;stroke:#FDD133;stroke-width:4;stroke-miterlimit:10;}
</style>
<path class="st0" d="M83.6,173c-0.8,0.3-6.5,2.4-12.3-0.8c-6.2-3.4-7.4-9.9-7.5-10.7c-2.8-17.6-5.5-35.1-8.3-52.7
	c0.1-2.9,0.7-6.7,3.5-9.1c1.3-1.1,2.4-1.4,3.7-1.9c6.4-2.4,7-6.1,10.7-6.7c1.4-0.2,3.6-0.1,6.4,1.6C84.9,101.8,90,110.9,95,120
	c2.1,3.1,2.3,6.9,0.5,9.1c-2.3,3-8.4,3.4-12.3-0.8c-3.8-5.6-7.7-11.2-11.5-16.8c-2-1-4.1-2-6.1-2.9"/>
<path class="st0" d="M72.9,174.3c0.5,6.1,1.1,12.1,1.6,18.2c2.7,1.6,7,3.6,12.6,4.8c2.2,0.5,11.1,2.2,21.9-1.1
	c7.2-2.1,12.5-5.6,15.8-8.3c-0.2-8.4-0.4-16.8-0.5-25.1"/>
<path class="st0" d="M114,165.7c2.4,0.1,8-0.1,12.3-4c3.9-3.6,4.6-8.3,5.3-13.6c1.7-12.8-3.3-15.5-1.6-28.6
	c0.7-5.2,1.7-6.9,1.1-11.2c-0.8-5.3-3.2-7.4-5.6-13.4c-2.6-6.3-0.8-6.5-3.2-14.2c-2.6-8.3-4.7-9.3-5.9-15.2
	c-0.7-3.4-1.1-8.3,0.5-14.7c-4.2-2.1-9.1-1.7-12.6,1.1c-3,2.4-3.7,5.9-4.3,9.4c-1.4,8.4,0.9,15.7,2.9,20.3c-0.1,2.6-0.2,6.2,0,10.7
	c0.3,5.2,0.4,7.8,1.6,10.2c0.8,1.5,3.1,5.5,9.9,8"/>
<path class="st0" d="M95.3,118.2c1.8,1.4,4.2,1.6,6.1,0.5c2-1.2,3.1-3.5,2.7-5.9c-0.8-5.7-2.2-12.3-4.5-19.2c-1-3-3.4-9.7-7.8-17.6
	c-2.6-4.7-5.1-8.5-7.2-11.5c-2.5,0.4-7.2,1.5-11,5.3c-4.2,4.4-4.8,9.9-5.3,14.2c-0.5,4.3-0.1,7.9,0.3,10.3"/>
<path class="st0" d="M79.8,92.8c-1.7-2.5-3.4-5-5.1-7.5"/>
<path class="st0" d="M83.3,63.4C82.7,45.1,82,26.8,81.4,8.6c0.1-0.5,0.5-3.7,2.9-5.1c2.8-1.6,7.5-0.4,10.2,3.7
	c2.5,15.8,5.1,31.5,7.6,47.3"/>
<path class="st0" d="M116.7,49.5c1.5-10.2,3-20.5,4.5-30.7c0-0.4,0.1-4.1,2.9-6.1c3-2.1,7.3-1.1,9.6,1.3c2.2,2.2,2.2,5.2,2.1,5.9
	c-1.8,28.7-3.6,57.4-5.3,86.1"/>
</svg>
