<?xml version="1.0" encoding="utf-8"?>
<!-- Generator: Adobe Illustrator 22.0.1, SVG Export Plug-In . SVG Version: 6.00 Build 0)  -->
<svg version="1.1" id="Layer_1" xmlns="http://www.w3.org/2000/svg" xmlns:xlink="http://www.w3.org/1999/xlink" x="0px" y="0px"
	 viewBox="0 0 200 200" style="enable-background:new 0 0 200 200;" xml:space="preserve">
<style type="text/css">
	.st0{fill:none;stroke:#FDD133;stroke-width:4;stroke-miterlimit:10;}
</style>
<path class="st0" d="M77.2,163.6c5.2,0.6,9.4,0.3,12.3,0c4.3-0.6,19-2.4,28.5-14.1c2.7-3.3,4.2-6.4,4.9-8.3
	c16.1-6.1,23.9-13.2,28.4-18.9c1.5-1.9,4.3-6.1,9.7-10.1c5.2-4,10.3-6.1,14-7.3c-0.6-1.9-1.9-5.8-5.6-8.3c-5.5-3.7-12.3-1.5-16.8,0
	c-6.5,2.1-11,6.1-13.7,8.9c-8.3,3.4-16.6,6.8-25,10.1c0-7.1-0.4-14.9-1.2-23.2c-0.7-7.3-1.6-14.3-2.8-20.5
	c-1.8-18.1-3.6-36.3-5.4-54.4c-0.7-4.8-3.4-8.6-7.3-10.1c-0.7-0.3-4.8-1.6-7.7,0.7c-1.6,1.3-2.2,3.3-2.4,4.2
	c0.6,18.1,1.2,36.4,1.8,54.5"/>
<path class="st0" d="M90.8,163.4c-2.8,8.5-5.6,17.1-8.5,25.6c-3.1,2.2-9.7,6.1-18.7,7.4c-4,0.6-12.6,1.2-22.3-3
	c-5.6-2.4-9.7-5.6-12.2-8c2.4-7.7,4.8-15.5,7.1-23.2c-2.8-12.6-5.2-26.9-6.5-42.4c0,0-1.2-6.1-0.9-16.9c0.1-8.5,1.3-11.7,3.6-14
	c1.8-1.8,3.9-2.4,8-3.6c5.1-1.5,9.5-1.9,12.5-2.1c3.1,13.4,6.1,26.6,9.2,39.8c-2.4,1.5-6.1,3.1-9.2,1.8c-3.1-1.5-3.9-5.5-5.1-9.8
	c-1.3-4.9-3.9-11.7-8.6-19.6"/>
<path class="st0" d="M52,83c2.1-4.3,4.9-7,6.5-8.5c2.4-1.9,4.8-4,8.3-4.2c2.8-0.1,5.1,1,6.2,1.8"/>
<path class="st0" d="M75.8,123.5c0-5.1-0.1-10.3-0.3-15.5c-0.4-12.5-1.2-24.5-2.4-35.8c0.7-0.7,1.9-1.8,3.6-2.7
	c2.5-1.5,7.7-4.6,12.2-2.7c4.6,2.1,5.4,6.5,5.6,8.5c0.6,3.9-0.3,8.6-0.3,10.3c-0.1,17.1-0.3,20.2-1.2,34.6c-0.1,1.6-2.7,4.5-6.2,5.6
	c-2.7,0.9-5.4,0.1-6.2,0C78.1,125.2,76.6,124.2,75.8,123.5z"/>
<path class="st0" d="M62.1,123.2c0.6,0.7,2.2,2.7,5.1,3.6c5.2,1.5,9.4-2.2,9.7-2.5"/>
</svg>
