<?xml version="1.0" encoding="utf-8"?>
<!-- Generator: Adobe Illustrator 22.0.1, SVG Export Plug-In . SVG Version: 6.00 Build 0)  -->
<svg version="1.1" id="Layer_1" xmlns="http://www.w3.org/2000/svg" xmlns:xlink="http://www.w3.org/1999/xlink" x="0px" y="0px"
	 viewBox="0 0 200 200" style="enable-background:new 0 0 200 200;" xml:space="preserve">
<style type="text/css">
	.st0{fill:none;stroke:#FDD133;stroke-width:4;stroke-miterlimit:10;}
</style>
<path class="st0" d="M108.9,100.8c-2.1-0.5-8.9-2.5-13.2-8.9c-4.9-7.5-4.4-18,1.5-26.4"/>
<path class="st0" d="M83.5,63.1c3.4,0,16.7,0.2,23.1,9.4c1.8,2.5,2.3,4.8,3.3,8.9c0.7,3,2.1,10,0,28.7c-0.4,3.2-1,7.8-1.9,13.2
	c-1,4.6,0.9,9.3,4.7,11.8c3.5,2.3,8.1,2.3,11.8,0c3.3-5.3,6.5-11.4,9.4-18.4c0,0,1.4-3.3,2.4-6.1c7.7-22.1,1.4-43.8,1.4-43.8
	c-0.9-3-2.4-7.5-5.2-12.7c-13.3-8.6-26.7-17.3-40-25.9c-2.9,0-7.1,0.5-11.3,2.8C74.2,35,74.9,40,68.5,42.8
	c-5.7,2.5-9.1-0.1-14.1,3.3c-2.6,1.8-4,4-5.2,6.1c-4.1,7.5-13.1,29.5-24,59.3c0,2.5,0,6.2,0,10.8c0.1,9.5,0.3,10.9,0,13.2
	c-0.5,4.4-2.6,10.4-9.9,17.4c2.6,6.3,8.4,17.3,20.2,25.4c19.6,13.4,41.5,9.2,47.5,8c8.7-1.7,15.5-4.8,19.8-7.1
	c7.2-14.8,14.4-29.5,21.7-44.3"/>
<path class="st0" d="M44.9,155.4c2.6,1,13.2,4.6,25.4,0c12.6-4.8,18.1-15,19.3-17.4"/>
<path class="st0" d="M55.7,79.1c4.5,10,9.9,20.7,16.5,32C78,121,83.9,130,89.6,137.9c0.6,0.5,5.1,4,11.3,2.8
	c6.5-1.3,9.4-6.7,9.7-7.4"/>
<path class="st0" d="M124.8,134.6c0.1,0.5,1.1,7.1,7.2,9.9c5,2.3,9.6,0.3,10.4,0c3.1-2.7,7.5-7.2,11.3-13.7
	c0.8-1.4,3.5-6.1,5.6-13.7c5.3-18.4,4.8-45,4.7-49.9c-14.9-16.5-29.8-33-44.7-49.4c-1-0.6-6.8-3.7-13.7-1.4c-9,3-11.2,12.5-11.3,13"
	/>
<path class="st0" d="M130.1,25.9c3.5-1.1,9.4-2.3,16-0.5c0,0,2.8,0.8,5.6,2.4c11.2,6.2,29.3,30.1,31.1,32.5c1.3,1.8,4,5.9,4.2,11.8
	c0.1,2.9-0.4,5.4-0.9,7.1c-1.3,7.6-3.7,17.6-8.5,27.8c-4,8.5-7.8,13.2-9.4,15.1c-2.8,3.2-4.6,5-6.1,6.1c-3.8,2.9-7.4,4.4-10,5.3"/>
<path class="st0" d="M81.7,62c3.6,5.2,7.2,10.3,10.9,15.5"/>
</svg>
