<?xml version="1.0" encoding="utf-8"?>
<!-- Generator: Adobe Illustrator 22.0.1, SVG Export Plug-In . SVG Version: 6.00 Build 0)  -->
<svg version="1.1" id="Layer_1" xmlns="http://www.w3.org/2000/svg" xmlns:xlink="http://www.w3.org/1999/xlink" x="0px" y="0px"
	 viewBox="0 0 200 200" style="enable-background:new 0 0 200 200;" xml:space="preserve">
<style type="text/css">
	.st0{fill:none;stroke:#FCD032;stroke-width:4;stroke-miterlimit:10;}
</style>
<path class="st0" d="M103.1,118.8c-1.8-1-5.7-3.5-8.4-8.4c-1.9-3.4-2.4-6.7-2.6-8.6c-2.6-0.6-8-2.2-13.2-6.9
	c-5.5-5.1-7.6-10.9-8.3-13.4c0.2-1.2,1.1-4.7,4.3-7.4c4.3-3.7,9.4-3.2,10.3-3.1c2.8,2.4,6.2,4.9,10,7.4c4.4,2.9,8.5,5.1,12.3,6.9
	c7,9.4,13.9,18.9,20.9,28.3c0.1,7.8-0.4,14.2-0.9,18.9c-1.3,12-2,18.2-6.3,24c-4,5.5-9.3,8.3-12.6,9.7"/>
<path class="st0" d="M125.3,148c3.9-8.7,7.8-19.6,10.3-32.4c1.3-6.5,2.1-12.7,2.6-18.3c-9.7-25.3-19.4-50.5-29.2-75.8
	c-1.8-5.6-7.7-8.1-12-6.3c-3.3,1.4-5.5,5.4-4.9,9.7c6,17.6,12,35.3,18,52.9"/>
<path class="st0" d="M96,78.9c0.7-12,1.5-23.9,2.2-35.9"/>
<path class="st0" d="M99,12.7c-0.8-5.6,3.6-10.1,8-10c3.8,0.1,7.5,3.6,7.7,8.3c0.5,9.8,1,19.6,1.6,29.5"/>
<path class="st0" d="M60.2,104.2c0.9-3.4,1.7-6.9,2.6-10.3c5.8,11.6,7.9,17.9,8.6,21.4c0.1,0.4,0.4,1.9,1.4,3.4
	c2.2,3.2,7.1,5.5,9.7,4c2.3-1.4,2.2-5.2,2-10c-0.1-3.8-0.8-9.4-3.4-16"/>
<path class="st0" d="M71.2,83.1c-4,1.2-8,2.4-11.9,3.6c-1.3,5-2.5,10.6-3.4,16.6c-1.3,8.5-2.8,18.1-1.7,30.3
	c0.1,1.6,1.3,13.6,6.6,25.7c1.7,3.9,4,8.1,8.6,10.9c2.3,1.4,4.5,2,6,2.3"/>
<path class="st0" d="M69.6,171.9c0.9,7.5,1.7,15.1,2.6,22.6c6.5,2.3,12,3,15.7,3.1c4.9,0.2,14.6,0.5,24.3-5.1c4-2.3,6.8-5,8.6-6.9
	c0.2-9.7,0.4-19.4,0.6-29.2"/>
<path class="st0" d="M84.5,112.7c0.2,0.2,2.3,2.4,5.5,1.9c2.2-0.4,4.1-2,4.8-4.2"/>
</svg>
