<?xml version="1.0" encoding="utf-8"?>
<!-- Generator: Adobe Illustrator 22.0.1, SVG Export Plug-In . SVG Version: 6.00 Build 0)  -->
<svg version="1.1" id="Layer_1" xmlns="http://www.w3.org/2000/svg" xmlns:xlink="http://www.w3.org/1999/xlink" x="0px" y="0px"
	 viewBox="0 0 200 200" style="enable-background:new 0 0 200 200;" xml:space="preserve">
<style type="text/css">
	.st0{fill:none;stroke:#FCD032;stroke-width:4;stroke-miterlimit:10;}
</style>
<path class="st0" d="M59.4,151.1c-3.9-0.9-9.4-2.8-14.5-6.9c-10.9-9-12.4-22.4-14.5-44.6c-1.9-20.5-2.9-33.1,4.4-45.9
	c2.3-4.1,7.1-12.2,17-16.3c5.5-2.4,10.6-2.6,13.8-2.5c3.5,6.9,7.7,16.9,10.1,29.6c2.3,12.5,2,23.2,1.3,30.8
	c-2.3,0.7-7.8,1.9-13.2-0.6C58.5,92,56,87,54.4,83.8c-4.2-8.5-1.9-13.3-6.9-20.1c-1.8-2.4-3.7-4.1-5-5"/>
<path class="st0" d="M64.4,34.7c0-1.4,0.2-8.3,5.7-13.2c5.5-4.9,14.1-5.7,21.4-1.9c3.3,9.9,6.6,22.6,8.2,37.7
	c1.6,14.7,1.1,27.6,0,37.7c-3.3,0.7-7.5,1.4-12.6,1.3c-3.9-0.1-7.3-0.6-10.1-1.3"/>
<path class="st0" d="M91.5,105.2c2.2-4.1,6.7-10.9,14.5-17c8.4-6.5,16.7-9,21.4-10.1"/>
<path class="st0" d="M135.5,91.4c-2.4-2.4-8.2-8.8-10.1-18.9c-1.2-6.5-0.2-11.9,0.6-15.1"/>
<path class="st0" d="M136.8,57.4c-3.6-0.3-11.3-1.4-18.9-6.9c-10.5-7.5-13.6-18.2-14.5-21.4c0.4-1.7,1.6-6.2,5.7-10.1
	c4-3.7,8.4-4.7,10.1-5c5.4,4.4,11.9,9.2,19.5,13.8c7.9,4.8,15.4,8.5,22,11.3c2.1,11.5,4.2,23,6.3,34.6c1,5.7,2.1,11.3,3.1,17
	c-1.5,3-4.1,8-7.5,13.8c-11.3,19.3-18.8,31.6-32.7,38.4c-3.1,1.5-8.4,3.6-15.7,4.4"/>
<path class="st0" d="M45,144.2c0.2,13,0.4,26,0.6,39c5.9,3.8,14.4,8,25.2,10.1c5.7,1.1,20.6,3.7,37.1-3.1c7.5-3.1,13-7.2,16.3-10.1
	c1-12,2-24,3-35.9"/>
<path class="st0" d="M100.6,81.9c2.5,1.6,5,3.2,7.5,4.8"/>
<path class="st0" d="M93.2,25.1c1.3-5.8,2.6-11.6,4-17.4c2.4-1.5,7-3.9,13.2-4.4c4.3-0.3,10.9-0.9,15.7,3.8
	c5.9,5.6,4.5,14.4,4.4,15.4"/>
<path class="st0" d="M130.4,15.3c1.8-1.6,5-3.9,9.6-5.1c8.9-2.3,16.3,1.5,18.2,2.5c1.7,4.5,3.3,9.9,4.4,16.3
	c1.6,9.5,1.3,17.7,0.6,23.8"/>
</svg>
