<?xml version="1.0" encoding="utf-8"?>
<!-- Generator: Adobe Illustrator 22.0.1, SVG Export Plug-In . SVG Version: 6.00 Build 0)  -->
<svg version="1.1" id="Layer_1" xmlns="http://www.w3.org/2000/svg" xmlns:xlink="http://www.w3.org/1999/xlink" x="0px" y="0px"
	 viewBox="0 0 200 200" style="enable-background:new 0 0 200 200;" xml:space="preserve">
<style type="text/css">
	.st0{fill:none;stroke:#FCD032;stroke-width:4;stroke-miterlimit:10;}
</style>
<path class="st0" d="M78.4,172c-0.9,0-4.2,0-7.2-2.4c-2.5-2-3.3-4.6-3.6-5.6c-2.8-18.2-5.6-36.3-8.4-54.5c-0.6-1.8-1.4-4.9,0-7.6
	c1.5-2.8,4.5-3.7,7.6-4.8c4-1.4,9.7-3.5,16.7-6.8c1.3,0,3.4,0.1,5.6,1.2c0,0,2.2,1.1,4,3.2c2.7,3.2,6.4,15.4,8.7,32.2
	c-2,1.3-5,2.8-8,2c-3.6-1-5-5-8.4-11.9c-1.8-3.8-4.6-9.2-8.4-15.5"/>
<path class="st0" d="M80,110.3c-1.6,0.2-4.8,0.2-8.4-1.2c-2.9-1.2-4.9-2.9-6-4"/>
<path class="st0" d="M70.4,168.8c-2.1,5.7-4.2,11.4-6.3,17.1c8.4,10.6,16.5,12,19.5,12.3c3.9,0.4,7.9-0.5,15.9-2.4
	c6-1.4,10.9-2.9,14.3-4c2-9.8,4-19.6,6-29.4"/>
<path class="st0" d="M108.6,164c2.3,0.4,6.8,0.8,11.1-1.6c2.7-1.4,4.5-3.4,6-5.6c6.5-9.2,10.8-24.2,11.9-28.2
	c0.4-2.5,2.6-17.7-7.6-28.6c-1.8-1.9-5-2.9-9.5-6.8c-4.5-3.7-7.6-7.4-9.5-9.9c-1.6,0.6-5.8,2.6-8,7.2c-3.3,7,0.8,15.2,5.2,19.5
	c2.6,2.5,5.3,3.7,7.2,4.4c1.1,2.6,2.7,5.6,4.8,8.7c2.3,3.4,4.7,6.2,6.8,8.4"/>
<path class="st0" d="M105.9,120.7c3.2-2.1,6.4-4.2,9.5-6.4"/>
<path class="st0" d="M74.5,94.4c3.6-8.1,7.1-16.1,10.7-24.2c1.3-0.7,3.2-1.7,5.6-2.4c2.9-0.9,7.5-2.2,10.7,0
	c1.1,0.7,1.8,1.6,2.8,3.6c1.4,2.7,3.3,7.1,4.1,13.3"/>
<path class="st0" d="M86,82.1c1.7,3.6,3.3,7.1,5,10.7"/>
<path class="st0" d="M93.9,64.2C99.6,46,105.3,27.9,111,9.7c0.7-4.2,4.8-6.8,8.4-6c3,0.7,5.3,3.7,5.2,7.2
	c-3.8,21.6-7.7,43.2-11.5,64.8"/>
<path class="st0" d="M123.4,17.4c1.3-0.5,4-1.2,7.1-0.5c1.6,0.4,4.5,1,6,3.6c1.1,1.9,0.9,3.9,0.8,4.8c-2.4,24.9-4.8,49.8-7.2,74.8"
	/>
<path class="st0" d="M92,67.4c0.9-1.8,1.7-3.6,2.6-5.4"/>
</svg>
