<svg id="Layer_1" data-name="Layer 1" xmlns="http://www.w3.org/2000/svg" viewBox="0 0 336.7 716.35"><defs><style>.cls-1{fill:#3030f9;}</style></defs><title>utter_logo</title><path class="cls-1" d="M350.28,585.12q-3.81-34.47-7.59-68.94-9-81.64-17.79-163.29-10.41-96.18-20.57-192.38-4.53-43.06-8.94-86.14c-1.63-15.93-2.48-32.84-13.77-45.37C271,17.23,253,15.72,239.82,23.84a41.64,41.64,0,0,0-16.95,20.88c-3.82,9.94-2.19,21.2-2,31.63q.6,32,1.26,64.06,1.26,61.1,2.5,122.19.31,16.77.61,33.53c.21,11.57,18.21,11.61,18,0q-1.06-61.12-2.41-122.24-.62-29.65-1.22-59.31-.31-15.36-.6-30.71l-.3-16.13c-.08-4.8-.92-10.13.36-14.78,1.79-6.55,6.37-12.5,12.74-15.15a14.6,14.6,0,0,1,14.28,1.31c3.68,2.53,6.56,8,8.09,13.21,2.05,7,2.42,14.28,3.15,21.49q4.26,41.73,8.66,83.46,9.76,92.85,19.83,185.67,8.78,81.14,17.67,162.25c2.88,26.27,5.63,52.56,8.66,78.81.05.37.09.74.13,1.11.53,4.83,3.75,9,9,9,4.45,0,9.54-4.14,9-9Z" transform="translate(-13.66 -8.57)"/><path class="cls-1" d="M58.23,650.8c11.59,0,11.61-18,0-18s-11.6,18,0,18Z" transform="translate(-13.66 -8.57)"/><path class="cls-1" d="M292.34,437.83,156.77,289.17a8.87,8.87,0,0,0-8.76-2.31c-18.27,6-37.06,15.91-44.34,34.83s.59,40.34,9.56,57.27c11.16,21.11,26.51,40,42,58.09,7.52,8.8,15.14,17.53,23,26,8,8.68,16.37,17.14,23.61,26.49,16.82,21.73,24.25,48.66,24.05,75.92-.09,11.58,17.91,11.59,18,0,.18-24.85-5.26-50.2-17.71-71.85-11.6-20.17-29.14-36.14-44.39-53.44-14.42-16.36-28.82-32.86-41.12-50.9-10.23-15-21.92-33.62-21.75-52a23.11,23.11,0,0,1,.63-6c.23-1,.5-2,.82-3s1.15-2.85.24-.85a34.66,34.66,0,0,1,2.12-4.05c.39-.64.81-1.26,1.23-1.87,1.12-1.6-.63.66.62-.77,7.36-8.47,17.69-13.18,28.26-16.67L144,301.9,279.61,450.56c7.83,8.57,20.53-4.18,12.73-12.73Z" transform="translate(-13.66 -8.57)"/><path class="cls-1" d="M70.37,495.34c8.18,34.1,28.83,67.54,61.32,83.24,9.59,4.63,20.43,6.85,30.83,3.51,9.27-3,16.6-9.24,22.27-17a47.31,47.31,0,0,0,4.05-6.46c3.36-6.66-1.29-12.56-4.34-18.46q-9.21-17.76-18.4-35.52L130.23,435.4l-8.73-16.87c-2.43-4.69-6.2-7.37-10.53-10.24A61.37,61.37,0,0,0,84,398.23c-35.67-3.94-54.72,32.9-64.36,61.27-6.79,19.94-6.91,40.39-4.81,61.23,4.25,42.14,13.17,85,33.59,122.48C66.29,676,102,695.76,135.52,708.87c25.3,9.88,52.15,16.43,79.46,16,41.08-.6,79.46-18.51,105.15-50.86a139.24,139.24,0,0,0,30.16-81.36q.13-3.84,0-7.66c-.43-11.55-18.44-11.61-18,0a112.27,112.27,0,0,1-.56,15.77c-.09.92-.2,1.85-.31,2.77s0-.17,0-.32c-.08.57-.17,1.15-.26,1.72-.38,2.45-.82,4.9-1.34,7.33a132,132,0,0,1-4.26,15.37A120.17,120.17,0,0,1,271,692.73c-43.08,23.93-95.3,14.37-138.36-4.35-24.31-10.58-50.41-25.58-65.07-48.16-17-26.26-25-58.5-30.35-88.91a358.56,358.56,0,0,1-5.41-44c-.25-4.92-.35-9.85-.2-14.78.07-2,.17-4,.33-6,.06-.85.14-1.7.23-2.54,0-.54.41-3.37.23-2.15s.14-.84.21-1.26c.12-.67.23-1.33.36-2q.39-2.06.9-4.08c.61-2.44,1.37-4.83,2.16-7.22,3.18-9.62,6.37-18.05,11.3-26.79,5.06-9,12-18.27,21.5-22.35a29,29,0,0,1,19.59-.76c5.49,1.59,12.63,4.61,16.7,8.79.22.22,1.06,1.95,1.74,3.28l3.22,6.22,7.36,14.2,13.8,26.64Q145.5,504,159.76,531.51q6.88,13.32,13.79,26.64v-9.09c-4.22,8.13-11.07,16.3-21.19,16.67-12.08.44-24.35-9.81-32.76-17.5C102.92,533,92.94,512.29,87.72,490.56c-2.7-11.26-20.06-6.49-17.35,4.78Z" transform="translate(-13.66 -8.57)"/><path class="cls-1" d="M163.47,531.36c26.64,7.42,54.71-9.08,61-36,2.64-11.26-14.71-16.07-17.36-4.78a31.91,31.91,0,0,1-9.72,16.91c-7.9,7.41-19.44,9.24-29.16,6.54-11.17-3.12-15.94,14.24-4.78,17.35Z" transform="translate(-13.66 -8.57)"/><path class="cls-1" d="M97.52,404a91.24,91.24,0,0,1-12-62.17c1.61-9.69,5.16-19.59,13.55-25.41,8.9-6.18,20.53-6.12,29.93-3.85,11.26,2.72,16.06-14.64,4.79-17.36-13.61-3.28-28.36-2.81-40.88,3.92-13,7-21,20.28-24.06,34.4A108.7,108.7,0,0,0,82,413.06c6,9.86,21.61.83,15.54-9.09Z" transform="translate(-13.66 -8.57)"/><path class="cls-1" d="M168.92,306.24c.23-48.39,2.72-96.67,5.07-145,1.13-23.26,2.13-46.53,2.7-69.81.32-13.27,0-26.59.57-39.85.33-8.07,3.63-16.88,10-22.1S203,26.71,209.74,31.4c7.63,5.3,11.51,13.82,11.34,23-.21,11.58,17.79,11.58,18,0A45.26,45.26,0,0,0,198.42,8.75C174,6.13,159.66,32,159.24,53.2c-.54,27.53-.89,55-2.07,82.56-1.11,25.89-2.54,51.77-3.73,77.65-1.41,30.93-2.38,61.87-2.52,92.83-.06,11.58,17.94,11.6,18,0Z" transform="translate(-13.66 -8.57)"/></svg>