<?xml version="1.0" encoding="utf-8"?>
<!-- Generator: Adobe Illustrator 22.0.1, SVG Export Plug-In . SVG Version: 6.00 Build 0)  -->
<svg version="1.1" id="Layer_1" xmlns="http://www.w3.org/2000/svg" xmlns:xlink="http://www.w3.org/1999/xlink" x="0px" y="0px"
	 viewBox="0 0 200 200" style="enable-background:new 0 0 200 200;" xml:space="preserve">
<style type="text/css">
	.st0{fill:none;stroke:#FCD032;stroke-width:4;stroke-miterlimit:10;}
</style>
<path class="st0" d="M66.4,169c-2.2-1.7-4.5-3.3-6.7-5c-3.9-10.1-5.7-19-6.7-25.5c-1.6-11.1-1.2-19.3-0.8-25.1
	c0.9-16.2,4.1-21.2,6.3-23.9c2.2-2.7,4.6-4.4,6.3-5.4"/>
<path class="st0" d="M61.8,100.8c2.5,2.6,5.2,5.3,8,8c3.4,3.3,6.8,6.3,10,9.2c2.7-0.8,5.3-1.7,8-2.5"/>
<path class="st0" d="M102.4,123.4c-0.7,0-9.7-0.3-14.7-8c-4.1-6.4-2.4-13.2-2.1-14.2"/>
<path class="st0" d="M89.8,103.7c-2.4-2-6.2-4.7-11.3-6.7c-3.3-1.3-4.6-1.3-6.3-2.1c-3.6-1.7-7.7-6.4-9.2-20.1
	c2.9-3.3,5.9-6.7,8.8-10c3.9,5,7.7,7.5,10.5,8.8c6,2.9,10.2,1.9,15.5,5.9c2.7,2,4.2,4.2,5.9,6.7c10.2,15.4,15.4,23.1,15.5,23.4
	c2,4.6,6.3,17,1.7,36"/>
<path class="st0" d="M97.8,169.5c2.5,0.7,6.1,1.3,9.6,0c9.2-3.4,11.9-16.9,13.4-23.9c3.5-16.8,8.7-37.3,16.3-64.5
	c2.9-20,5.9-39.9,8.8-59.9c-0.4-4.3-4.4-7.4-8.4-6.7c-3.7,0.6-6.5,4.4-5.9,8.4c-5.6,17.3-11.2,34.6-16.7,51.9
	c-1.4-0.1-2.8-0.3-4.2-0.4c0.4-20.7,0.8-41.3,1.3-62c0-5.9-5.2-10-9.6-9.2c-3.7,0.6-6.9,4.5-6.7,9.2c-1.1,21.4-2.3,42.8-3.4,64.2"/>
<path class="st0" d="M88.2,73.2C85.1,55.6,82,38,79,20.4c-1-3.8-4.7-6.1-8.4-5.4c-3.5,0.7-6,3.9-5.9,7.5C65.9,38,67,53.5,68.2,69"/>
<path class="st0" d="M112.7,165.9c0.1,8.4,0.1,16.9,0.2,25.3c-8.4,3-15.7,4.4-20.9,5c-6.9,0.8-14.5,1.7-23.9-0.8
	c-3-0.8-5.5-1.8-7.1-2.5c-0.4-9.6-0.8-19.3-1.3-28.9"/>
</svg>
