<?xml version="1.0" encoding="utf-8"?>
<!-- Generator: Adobe Illustrator 22.0.1, SVG Export Plug-In . SVG Version: 6.00 Build 0)  -->
<svg version="1.1" id="a" xmlns="http://www.w3.org/2000/svg" xmlns:xlink="http://www.w3.org/1999/xlink" x="0px" y="0px"
	 viewBox="0 0 150.9 200" style="enable-background:new 0 0 150.9 200;" xml:space="preserve">
<style type="text/css">
	.st0{fill:none;stroke:#FDD031;stroke-width:6;stroke-miterlimit:10;}
</style>
<image style="display:none;overflow:visible;" width="168" height="238" xlink:href="a.png"  transform="matrix(0.893 0 0 0.893 -14.5894 -22.2463)">
</image>
<path class="st0" d="M32,189.3c-0.2-13.2-0.4-26.3-0.6-39.5"/>
<path class="st0" d="M62.8,149.2c-2.8,2.2-11.5,8.2-21.5,6.4c-2.2-0.4-9.9-2.2-19.8-16.9c-3.6-5.4-24.9-38.3-12.8-76.1
	c2.3-7.2,8-13.7,9.8-16.8"/>
<path class="st0" d="M19.8,41.1c-2,3.4-1.2,7.1-0.6,9.9c5.2,23.1,7.7,34.6,15.7,37.2c0.8,0.3,3.6,1.2,6.4,0c1-0.4,6.7-1.8,5.8-8.7
	c-2.3-17.2-3.7-20-6-29.6c-1.8-7.6-0.7-12.8-9.7-14C27.1,35.3,22,37.3,19.8,41.1z"/>
<path class="st0" d="M38.4,37c0.1-5.7,3.6-10.8,8.7-12.8c5.8-2.2,12.6-0.1,16.3,5.2c0.3-1,2.6-8.2,9.9-11c5.4-2.1,10.1-0.5,11.6,0
	c6.8,2.3,9.8,8,10.5,9.3c0.6-1.4,1.9-4,4.6-5.8c4.1-2.7,9.7-2.6,14.5,0"/>
<path class="st0" d="M32,189.3c11.4,4.7,21.4,6,27.9,6.4c5.9,0.3,14.4,0.8,25-2.3c10-2.9,17.2-7.7,21.5-11
	c-0.2-12.4-0.4-24.8-0.6-37.2"/>
<path class="st0" d="M43.3,86.7c0.3,6,4.6,10.9,10.1,11.9c4.4,0.8,9.5-0.9,12.2-5.2c3.3-5.3,0.7-11,0.5-11.4
	c-0.1-18.3-5.2-35.4-1.1-56.4"/>
<path class="st0" d="M68.3,92.4c-1.6,2.6-6.5,11.1-4.9,22.1c1.4,9.5,6.8,15.5,9.4,18.4c2.9,3.2,8.6,9.5,18.4,11.4
	c2,0.4,11.4,2.3,19.9-3c3.6-2.3,5.8-5.1,7.5-7.5c7.9-11.3,13-24.9,15.9-34.3c3.8-16.7,7.6-33.4,11.4-50.2c-0.2-2.4-0.7-6.1-2-10.4
	c-2.2-7.2-4.7-9.9-6.5-14.9c-1.3-3.9-2.4-9.9-0.5-18.4c-2.4-0.7-7.2-1.7-11.9,0.5c-9.9,4.6-10.3,19.5-10.4,22.8
	c-0.1,3.5,0.2,10.4,4.5,18.4c-2.5,3.3-4,6.4-5,8.9c-1.9,5-1.4,7.1-3.5,14.4c-1.5,5-2.2,7.6-4,9.4c-3.4,3.6-9,5.2-13.9,4
	c-1.4-0.4-4.8-1.2-6.5-4c-1.9-3.2-0.6-6.9,0.5-10.9c2.9-10.8-0.1-9.5,3-23.3c1-4.7,2.7-11,5.6-18.2"/>
<path class="st0" d="M66.8,91c3.4,3.8,8.7,5.2,13.5,3.7c5.1-1.6,8.6-6.3,8.9-11.7"/>
</svg>
