<?xml version="1.0" encoding="utf-8"?>
<!-- Generator: Adobe Illustrator 22.0.1, SVG Export Plug-In . SVG Version: 6.00 Build 0)  -->
<svg version="1.1" id="Layer_1" xmlns="http://www.w3.org/2000/svg" xmlns:xlink="http://www.w3.org/1999/xlink" x="0px" y="0px"
	 viewBox="0 0 200 200" style="enable-background:new 0 0 200 200;" xml:space="preserve">
<style type="text/css">
	.st0{fill:none;stroke:#FDD031;stroke-width:5;stroke-miterlimit:10;}
</style>
<path class="st0" d="M118.6,120.2c-1.2-3.2-2.8-5.2-4.1-6.5c-3.2-3.2-6-3.4-10.4-6.7c-2.6-2-4.4-4-5.5-5.5c-2.4,0.3-7,0.5-11.8-2
	c-0.4-0.2-10.5-5.7-10.4-15.4c0-3.9,1.6-6.8,2.6-8.3c4.5,1.5,8.9,3,13.4,4.5c2.4-0.5,6.8-1,11.8,0.6c1.4,0.5,4.3,1.4,7.1,3.9
	c1.8,1.5,2.8,3,3,3.5c2,2.8,8,9.3,24.2,24.2c0.8,4,1.5,9.2,1,15.2c-0.9,12.5-6,21.6-9.1,26.4c-1.5,1.4-6.3,5.4-13.8,6.1
	c-8.2,0.7-14.1-3.2-15.6-4.3c-1.6-6.8-3.4-12-4.9-15.6c-1.4-3.4-3-6.9-2.6-11.8c0.2-2.3,0.7-4,1.2-5.5c1.3-4,3.6-10,7-17.8"/>
<path class="st0" d="M127.4,156.4c-0.9,10.6-1.7,21.2-2.6,31.9c-3.5,2-8.7,4.4-15.4,5.7c-9.7,1.9-17.5,0.5-22.4-0.4
	c-4.2-0.8-9.9-2.3-16.2-5.3c1.6-8.6,3.2-17.3,4.8-25.9"/>
<path class="st0" d="M86.6,163.7"/>
<path class="st0" d="M83.9,163.7c-1.9,0.3-5.2,0.4-8.3-1.3c-3.9-2.1-5.6-5.8-6.6-8.3c-8.4-20.7-7.5-40.4-7.5-40.4
	c0.3-5.9,1.1-14.1,3.7-23.8c2.5-22.8,4-38.4,3.7-43c0-0.5-0.2-3,1-5.7c0.5-1.1,1.6-3.4,4.1-4.5c0.3-0.1,3.1-1.3,5.9,0
	c0.5,0.2,1.4,0.7,2,1.6c1.1,1.7,0.7,3.7,0.6,4.3c-0.5,3.2-0.8,15.7-0.9,34"/>
<path class="st0" d="M96.7,73.7c-0.5-18.6-1.1-37.1-1.6-55.7c0.5-2.3-0.4-4.6-2.3-5.9c-2-1.4-4.4-0.9-5.5-0.6
	c-3.3,0.8-5.2,3.3-5.7,4.1c-0.3,7-0.7,14-1,21"/>
<path class="st0" d="M114.3,73c-0.6-15.1-1.3-30.4-2.4-46c-0.4-6.1-0.8-12.2-1.3-18.3c-0.2-0.3-2.3-4.3-6.7-4.7
	c-3.6-0.3-6,2-6.7,2.6c-2.9,2.7-3,6.3-3,7"/>
<path class="st0" d="M139.1,111.4c-1-6.5-2.4-16.4-4-28.5c-0.6-4.6-1-7.7-1.8-14.2c-2.2-17.7-2.3-23.1-4.2-33.1
	c-1.1-5.7-2.2-10.3-2.9-13.1c0.1-4.9-4.2-8.5-8.2-8c-3.6,0.5-6.7,4.1-6.3,8.4"/>
</svg>
