<?xml version="1.0" encoding="utf-8"?>
<!-- Generator: Adobe Illustrator 22.0.1, SVG Export Plug-In . SVG Version: 6.00 Build 0)  -->
<svg version="1.1" id="Layer_1" xmlns="http://www.w3.org/2000/svg" xmlns:xlink="http://www.w3.org/1999/xlink" x="0px" y="0px"
	 viewBox="0 0 200 200" style="enable-background:new 0 0 200 200;" xml:space="preserve">
<style type="text/css">
	.st0{fill:none;stroke:#FDD031;stroke-width:4;stroke-miterlimit:10;}
</style>
<path class="st0" d="M84,169.3c-2,0.8-7.2,2.6-12.5,0.6c-3.1-1.2-5.2-3.1-6.9-5.2c-10-11.8-11.6-30.4-12.1-36.4
	c-0.5-6.3-0.4-12.9-0.4-18.5c0.1-5.2,0.2-9.6,0.4-12.5"/>
<path class="st0" d="M61.9,86.5c-0.6-0.2-3.5-1.3-6,0.2c-0.5,0.3-1.7,1.1-2.7,3.7c-2.6,6.7,1,14,2.1,16.4c1,2.2,0.8,1.1,3.5,5.8
	c3.5,6.2,4,8.2,6.5,9.8c0.9,0.5,3.6,2.2,6.3,1.2c2.9-1.1,3.7-4.4,3.8-4.8"/>
<path class="st0" d="M65.8,167.5c-0.7,6.7-1.4,13.5-2.1,20.2c3.6,3.2,9.1,7,16.5,8.8c10.3,2.6,19,0.2,23.9-1.2
	c5.9-1.7,10.5-4,13.5-5.8c0.3-7.4,0.6-14.9,1-22.3"/>
<path class="st0" d="M105.6,170.1c14,0.9,25.6-13.7,25.6-26.9c0-16.1-13.1-13.1-26.3-33.6c-4.6-7.2-16.1,4.4-14.6,13.2
	c2.9,10.2,11.7,17.5,21.6,19.4"/>
<path class="st0" d="M107.1,150.8"/>
<path class="st0" d="M107.1,150.8c-0.9-3.7-1.8-7.4-2.7-11.1"/>
<path class="st0" d="M128.5,132.1c2.2-5.9,2.9-14.9,2-25.8c-1.4-16.1,0.1-9.8-3.2-29.6c-4.1-25-11.2-46.9-17.3-70.4
	c-0.2-0.3-3.2-4.3-8.1-4c-2.5,0.1-6,1.4-7.3,4.6c-0.8,1.9-0.4,3.8-0.2,4.6c3.7,21.4,9.6,54.7,13.4,76C104.6,69.2,101,61,95.2,58.8
	C93,58,90.5,58,89.8,58.1c-5.4,0.1-9.2,2.8-10.8,4c-0.8,9-0.3,16.3,0.4,21.4c1.2,9,3.1,24.2,10.6,26.2c2.3,0.6,5.2-0.6,5.8-0.8
	c0.9-0.3,4.9-1.8,6.5-5.4c1.1-2.4,0.5-4.1-0.8-11.2c-0.9-5.2,1.1,5.4-1.5-10c-0.7-4.1-1.6-9.4-2.8-15.6"/>
<path class="st0" d="M78.6,72.2c-0.7-0.4-4-2.4-8.3-1.5c-5.3,1.2-7.4,5.9-7.7,6.5c-2.2,5,0.3,9.6,0.6,10.2c3.3,4.7,5.2,8.8,6.3,11.7
	c2.3,5.8,3.4,11.2,7.7,18.7c1.7,2.9,3.2,5,5.4,5.2c3,0.3,5.3-2.9,5.6-3.3c3.2-4.4,0.6-10.3,0.4-10.7"/>
</svg>
