<?xml version="1.0" encoding="utf-8"?>
<!-- Generator: Adobe Illustrator 22.0.1, SVG Export Plug-In . SVG Version: 6.00 Build 0)  -->
<svg version="1.1" id="Layer_1" xmlns="http://www.w3.org/2000/svg" xmlns:xlink="http://www.w3.org/1999/xlink" x="0px" y="0px"
	 viewBox="0 0 200 200" style="enable-background:new 0 0 200 200;" xml:space="preserve">
<style type="text/css">
	.st0{fill:none;stroke:#FDD031;stroke-width:5;stroke-miterlimit:10;}
</style>
<path class="st0" d="M130.5,61.5c3.8,5.6,9,8.7,13.3,7.6c3.4-0.8,5.8-3.6,6.6-6.2c3.9-12,3.1-21,2.2-25.7c-0.9-4.9-2.7-10-3.5-12.4
	c-2-5.6-4.1-10.1-5.8-13.3c-1.7-0.8-6.4-2.9-12.4-1.8c-3.8,0.7-6.5,2.4-8,3.5"/>
<path class="st0" d="M112.2,62.8c0.8,0.8,3.7,3.4,8.1,3.6c1,0.1,5.8,0.2,8.9-3.1c2-2.1,2.3-4.6,2.7-7.5c0.5-4.5,1-10.8,0.9-18.6
	c-0.7-3.9-2-8.8-4.4-14.2c-3.3-7.3-7.4-12.8-10.6-16.4c-0.7-0.5-8.2-5.8-17.3-2.7c-8.3,2.9-11.2,10.5-11.5,11.5"/>
<path class="st0" d="M110.6,70.3c0.7-3.4,1.2-7.9,0.9-13.2c-0.6-8-3-14.3-4.9-18.2c-7.4-8.6-14.8-17.1-22.2-25.7
	c-1-1-2.6-2.2-4.9-2.7c-5.8-1.1-10.8,4.5-12.4,6.5c-0.2,0.2-0.3,0.4-0.5,0.6c-1.8,2.5-3.9,6.6-4,13.3"/>
<path class="st0" d="M57,55.8c5.2,6,10,10.5,13.7,13.7c9.5,8.2,12.8,8.6,15.1,8.4c3.7-0.3,7.7-2.6,9.3-6.2c1.3-3,0.9-6.9-4.4-15.5
	c-3.8-6.1-10.2-14.9-20.8-23.9c-1.8-0.1-5-0.1-8.4,1.3c-1.2,0.5-5.8,2.6-8.4,7.5c-1.5,2.8-1.7,5.4-1.8,6.6
	c-1,11.7-4.7,13.8-6.2,26.6c-0.6,5.2-0.4,9.4,0,17.7c0.5,9.1,0.9,17.2,3.1,27c2.8,12.3,6.2,27.1,17.7,34.1c4.3,2.6,8.5,3.4,9.3,3.5
	c7.9,1.5,14.4-1,17.3-2.2"/>
<path class="st0" d="M68.3,154.6c-1.2,10.8-2.5,21.6-3.7,32.4c4.2,3.1,11.4,7.6,21.3,9.3c22.1,3.8,39.1-9.5,42.1-12
	c0.7-12.6,1.5-25.1,2.2-37.7"/>
<path class="st0" d="M97.8,127.2c0.4,2.2,1.2,5.7,3.5,9.3c4,6.2,11.2,10.7,19.5,11.1c12.3,0.5,19.6-8.4,20.4-9.3
	c5.8-12.7,11.5-25.4,17.3-38.1c0.1-3.4-0.2-14.2-8-22.6c-5-5.3-7.9-7.8-15.5-8.1c-12-0.6-12,1.2-34.6,0.9c-2.4,0-7.9,2.4-11.1,10.7
	c-0.2,0.5-0.5,5.9,3.1,9.7c2.9,3.1,6.9,3.7,9.3,4c13.5,1.7,29.2,2.1,34.1,2.2"/>
<path class="st0" d="M120,96.4c3.5,3.9,7,7.8,10.5,11.7"/>
</svg>
