<?xml version="1.0" encoding="utf-8"?>
<!-- Generator: Adobe Illustrator 22.0.1, SVG Export Plug-In . SVG Version: 6.00 Build 0)  -->
<svg version="1.1" id="Layer_1" xmlns="http://www.w3.org/2000/svg" xmlns:xlink="http://www.w3.org/1999/xlink" x="0px" y="0px"
	 viewBox="0 0 287.8 288.1" style="enable-background:new 0 0 287.8 288.1;" xml:space="preserve">
<style type="text/css">
	.st0{fill:none;stroke:#231F20;stroke-width:9;}
</style>
<path class="st0" d="M245.2,135.7c-1.5-2.6-5.7-9.8-13-17c-8-7.8-12.7-8.7-24-16c-5.6-3.6-13.8-9.4-23-18c-16.7-0.3-41.8-0.7-73-1
	c-166.5-1.5-35.8,4.6-65,4c-8.4-0.2-21.4-0.7-30,8c-4.2,4.2-8.6,12.1-6,17c4.4,8.4,27.2,5,47,2c26.4-3.9,41-9.9,44-5
	c3.6,5.8-14.5,19-10,29c3.5,7.7,17.4,7.4,18,14c0.4,4-4.5,5.6-4,10c0.6,4.9,7,5.1,10,11c3.2,6.3-2,10.1,0,17
	c2.5,8.5,13.3,12.4,23,16c8.9,3.3,15.9,4.1,24,5c15.3,1.7,27.1,3,41-1c7-2,15.1-5.6,16-4c0.7,1.3-4.5,4-4.2,7.9
	c0.4,4.5,7.9,7.6,12.5,8.7c1.6,0.4,8.4,1.7,17.4-1.9c12.1-4.9,18.4-14.9,21.7-20.3c10.1-16.4,10.2-33.3,9.6-41.5
	c-9.2-4.7-18.3-9.3-27.5-14C248.8,143,247.3,139.6,245.2,135.7z"/>
</svg>
