<?xml version="1.0" encoding="utf-8"?>
<!-- Generator: Adobe Illustrator 22.0.1, SVG Export Plug-In . SVG Version: 6.00 Build 0)  -->
<svg version="1.1" id="Layer_1" xmlns="http://www.w3.org/2000/svg" xmlns:xlink="http://www.w3.org/1999/xlink" x="0px" y="0px"
	 viewBox="0 0 200 200" style="enable-background:new 0 0 200 200;" xml:space="preserve">
<style type="text/css">
	.st0{fill:none;stroke:#FDD133;stroke-width:4;stroke-miterlimit:10;}
</style>
<path class="st0" d="M79.4,158c-2,0.2-7.6,0.4-13.4-3.1c-6.6-4-9-10.2-9.6-11.9c-1.9-23.7-3.8-47.4-5.8-71
	c-5.5-18.3-11-36.6-16.5-54.9c-2.7-5.4-2.2-10.9,0.8-13.4c1.4-1.2,3.4-1.4,4.2-1.5c4.2-0.5,7.4,1.6,8.4,2.3
	C55.4,23.1,63.2,41.8,71,60.5"/>
<path class="st0" d="M72.8,47.1c0.7,10.5,2,16.1,3.2,22.4c0.8,4.2,3.6,16.4,9.1,28.2c0.4,0.9,1.9,3.7,5,5c3.7,1.6,8.3,0.5,11.5-2.7
	c-1.9-19.1-3.8-38.1-5.8-57.2c-0.5-0.6-5.3-5.8-11.5-5c-3.9,0.5-6.8,3.1-8.1,4.2c-1.7,1.5-2.8,3.1-3.5,4.2
	c-0.4,4.9-0.7,9.8-1.1,14.7"/>
<path class="st0" d="M101.7,144c1.7,2.1,6.2,7.2,13.7,9c2.6,0.6,9.7,2.4,15.1-1.7c1.7-1.3,2.8-2.8,3.4-3.9
	c13.5-23.8,23.1-40.7,25.8-45.1c0.2-0.4,0.9-1.5,1.5-3.2c1.5-4.8,0.1-9.2-0.5-11c-4.7-15-0.5-20.6-7.6-29.5c-3.2-4-6.7-6.3-7.6-6.8
	c-6.7-4.2-11.2-3-19-6.6c-2.5-1.2-6.2-3.2-10.2-6.8c-2,1-5.5,3.3-7.3,7.3c-4,9,4.2,19,5.9,21c7.7,9.4,19.1,10.7,22.2,11"/>
<path class="st0" d="M129.2,77.7c-0.1,1.3-0.1,3.3,0.7,5.6c1.2,3.5,3.7,5.5,6.3,7.6c1.7,1.3,4.3,3.1,7.9,4.6"/>
<path class="st0" d="M95.7,41.4c0.9-1.3,3.4-4.5,7.9-5.8c4.6-1.4,8.5,0,10.5,0.7c2.8,1,4.8,2.4,6.1,3.4c0.5-1,1.5-2.8,3.4-4
	c0.5-0.4,2.3-1.4,6.6-1.6c3.5-0.2,7.2-0.4,11.2,1.6c3.9,2,5.9,5,6.9,6.6c3.9,6,3.7,12.4,3.5,14.9"/>
<path class="st0" d="M101.6,99.3c0.2,0.3,3.8,5.2,9.8,4.8c4.5-0.3,7.5-3.3,8.9-5.6c1.4-2.3,1.6-4.5,1.6-5.9
	c0.3-4.2,0.5-10.8,0.3-19.6"/>
<path class="st0" d="M63.6,154.3c0.5,12.1,0.9,24.2,1.4,36.4c8,3.6,15,5.2,19.7,5.9c7.9,1.2,19.9,3,32.1-3c6.2-3.1,10.4-7.2,12.8-10
	c-0.2-10.4-0.4-20.9-0.6-31.3"/>
</svg>
