<?xml version="1.0" encoding="utf-8"?>
<!-- Generator: Adobe Illustrator 22.0.1, SVG Export Plug-In . SVG Version: 6.00 Build 0)  -->
<svg version="1.1" id="Layer_1" xmlns="http://www.w3.org/2000/svg" xmlns:xlink="http://www.w3.org/1999/xlink" x="0px" y="0px"
	 viewBox="0 0 200 200" style="enable-background:new 0 0 200 200;" xml:space="preserve">
<style type="text/css">
	.st0{fill:none;stroke:#FDD133;stroke-width:4;stroke-miterlimit:10;}
</style>
<path class="st0" d="M132.9,158.3c-1.7,1.1-6.8,4.1-13.9,3.8c-8.1-0.4-13.3-4.9-14.7-6.2C91,135,77.6,114.2,64.1,93.3
	C50.1,79.2,36,65.1,21.9,51c-5.2-3.6-7.4-9-5.9-12.7c0.7-1.8,2.4-3,3.1-3.5c3.6-2.6,7.6-2.2,8.9-2c16.4,13.3,32.7,26.7,49.1,40"/>
<path class="st0" d="M72.3,59.5c5.8,9.3,9.8,13.8,14,19c2.8,3.4,11.4,13.3,22.3,21.5c0.8,0.6,3.5,2.5,7,2.1c4.2-0.4,7.8-3.6,9.3-8.1
	c-11.1-16.6-22.3-33.2-33.4-49.8c-0.8-0.3-7.7-2.7-13,1.1c-3.4,2.4-4.8,6.2-5.3,7.9c-0.8,2.2-1,4.2-1.1,5.6
	c2.1,4.7,4.2,9.4,6.2,14.1"/>
<path class="st0" d="M146.5,134.4c2.6,1.1,9.2,3.6,17,1.6c2.7-0.7,10.1-2.6,13.1-9c0.9-2,1.2-4,1.2-5.3c0.7-28.5,1.3-48.8,1.6-54.2
	c0-0.5,0.1-1.9-0.2-3.6c-1-5.2-4.5-8.5-5.8-9.8c-11.7-11.5-10.6-18.7-21.5-23.4c-4.9-2.1-9.2-2.5-10.3-2.6
	c-8.2-0.5-11.8,2.8-20.7,3.3c-2.9,0.2-7.3,0.1-12.8-1.2c-1.3,2-3.5,5.7-3.1,10.3c0.8,10.3,13.3,15.4,15.7,16.4
	c11.7,4.8,22.8,0.5,25.8-0.8"/>
<path class="st0" d="M139.2,59.9c0.5,1.2,1.5,3.1,3.4,4.8c2.9,2.6,6.1,3.3,9.5,3.9c2.2,0.4,5.5,0.8,9.5,0.4"/>
<path class="st0" d="M90.5,43c0.2-1.6,0.9-5.8,4.4-9.2c3.5-3.5,7.8-4.2,10-4.6c3-0.5,5.6-0.2,7.3,0.1c0-1.2,0-3.3,1.2-5.4
	c0.3-0.6,1.4-2.4,5.2-4.8c3.2-1.9,6.4-3.9,11.1-4c4.5-0.1,7.9,1.7,9.6,2.7c6.6,3.6,9.5,9.6,10.5,12"/>
<path class="st0" d="M124.4,93.3c0.3,0.2,6,2.9,11.4-0.4c4-2.5,5.3-6.7,5.4-9.5c0.1-2.8-0.8-4.9-1.4-6.3c-1.8-4-4.8-10.2-9.4-18.1"
	/>
<path class="st0" d="M116.5,162.6c6.4,10.9,12.8,21.8,19.2,32.7c9.2-0.6,16.3-2.6,21-4.3c7.8-2.8,19.8-7,28-18.6
	c4.2-5.9,6-11.7,6.9-15.4c-5.3-9.5-10.6-19-15.9-28.5"/>
<path class="st0" d="M8.1,83.2c0,22.3,0,44.6,0,66.9c-0.1,1.2-1.1,13.4,8.4,21.6c8,6.9,19.5,7.3,27.9,2.8
	c7.1-3.8,10.2-10.2,11.1-12.5"/>
<path class="st0" d="M41.4,162.6c4.7-0.2,9.4-0.4,14.1-0.6c0.5,4.9,0.9,9.9,1.4,14.8"/>
</svg>
