<?xml version="1.0" encoding="utf-8"?>
<!-- Generator: Adobe Illustrator 22.0.1, SVG Export Plug-In . SVG Version: 6.00 Build 0)  -->
<svg version="1.1" id="Layer_1" xmlns="http://www.w3.org/2000/svg" xmlns:xlink="http://www.w3.org/1999/xlink" x="0px" y="0px"
	 viewBox="0 0 200 200" style="enable-background:new 0 0 200 200;" xml:space="preserve">
<style type="text/css">
	.st0{fill:none;stroke:#FDD133;stroke-width:4;stroke-miterlimit:10;}
</style>
<path class="st0" d="M62.3,164.8c3.6-0.3,8-1.2,12.6-3.5c16-8.1,19.8-26.4,20.2-29c1.4-7.4-0.7-7.2-1.4-25.1c-0.4-10.3-0.7-19,1-29
	c1.2-6.9,4-17.4,11.2-29.3"/>
<path class="st0" d="M101,43.1c2,1.7,4,3.5,5.9,5.2c1.2,0.2,3.6,0.4,6.3-0.7c5.2-2.2,6.5-7.7,6.6-8.4"/>
<path class="st0" d="M117.8,43.4c0.8,0.7,2.1,1.7,3.5,3.1c4.2,4.2,4.6,6.3,7.7,8.7c1.3,1,3.9,3,7.3,3.1c5.8,0.3,9.8-4.7,10.5-5.6
	c-6.7-8.1-13.5-16.3-20.2-24.4c-10-1.3-20-2.6-30-3.8C83.9,36.8,71.4,49,58.8,61.2c-5,13.3-10,26.5-15,39.8
	c-3.8,26.3-7.7,52.6-11.5,78.9c2,2.9,7.4,9.7,17.1,13.3c7.7,2.8,14.2,2.1,17.1,1.7c10.3-1.2,17.4-6.2,20.6-8.7
	c1.4-10.2,2.8-20.5,4.2-30.7c2.9-0.4,7.3-1.3,11.9-3.8c7.4-4,10.5-9.4,17.4-17.8c0,0,5.1-5.5,15.4-16.4c5.8-6.2,14.2-15,24.8-25.5
	c3.4-11.2,6-20.7,8-28.3c0.8-3.1,1.8-7.1-0.3-9.8c-2.7-3.3-8.7-2.4-10.1-2.1"/>
<path class="st0" d="M45.2,91.9c2-11.7,4-23.5,5.9-35.2c14.2-14.3,28.4-28.6,42.6-42.9c1.1-1.1,3.2-3,6.3-3.8c0.6-0.2,3.2-0.8,7,0
	c9.2,2,26.2,12.6,27.2,13.3c2.7,2.6,6.6,7.2,9.4,14c2.1,5.1,2.9,9.6,3.1,12.9"/>
<path class="st0" d="M49.1,62.6c0.6-5.1,1.2-10.2,1.7-15.4c2-1.6,4.1-3.3,6.3-4.9c7.5-5.6,14.9-10.3,22-14.3"/>
<path class="st0" d="M96.5,10.3c2.7-2,5.4-4,8-5.9c1.5,0,3.9,0,6.6,0.3c15.1,2,29.3,12,36.6,25.8c1.6,3,1.7,5.9,4.5,12.6
	c2.1,5,4.1,8.9,5.6,11.5c-0.4,0.7-3.4,5.9-9.8,7c-6.6,1.2-11.3-3-11.9-3.5"/>
<path class="st0" d="M96.9,72.7c7.6,5.6,15.1,11.2,22.7,16.7c5.5-4.2,10.9-8.4,16.4-12.6"/>
<path class="st0" d="M143.3,61.5c-3.3,3.7-4.9,7.2-5.6,9.4c-0.8,2.3-1.5,4.5-1,7.3c0.8,4.7,4.4,7.5,5.6,8.4"/>
<path class="st0" d="M119.9,89.8c1,2.7,2.1,5.4,3.1,8"/>
<path class="st0" d="M118.1,88.4c-1.3,2.1-2.6,4.2-3.8,6.3"/>
</svg>
