<?xml version="1.0" encoding="utf-8"?>
<!-- Generator: Adobe Illustrator 22.0.1, SVG Export Plug-In . SVG Version: 6.00 Build 0)  -->
<svg version="1.1" id="Layer_1" xmlns="http://www.w3.org/2000/svg" xmlns:xlink="http://www.w3.org/1999/xlink" x="0px" y="0px"
	 viewBox="0 0 200 200" style="enable-background:new 0 0 200 200;" xml:space="preserve">
<style type="text/css">
	.st0{fill:none;stroke:#FCD032;stroke-width:4;stroke-miterlimit:10;}
</style>
<path class="st0" d="M71.5,93.1c1.1,1.8,2.5,4.4,3.1,7.9c1.2,7.4-2.4,13.4-4.6,17.6c-1.8,3.4-10.6,20-11.6,36.4
	c-0.4,6.5-0.9,16.4,5.8,22.3c5.8,5.1,14,4.4,16.8,4c2-8.9,5-19.2,9.5-30.4c6.7-16.5,9.9-24.9,16.2-31.2c7.8-7.8,14-8.9,22.3-20.2
	c2.8-3.9,4.9-6.7,6.7-11.3c3.9-10.1,1.3-16.1,6.1-22c1.6-1.9,4.3-4.3,9.5-5.8"/>
<path class="st0" d="M138.4,75.2c4.9,1.9,10.3,4.3,16,7.6c8.2,4.6,14.8,9.7,20,14.2c8.5-8.9,12.5-17.5,14.5-22.8
	c2.9-7.8,3.6-14.6,4.3-22c0.9-8.3,0.8-15.3,0.6-20.2c-13-3.5-23.4-7.1-30.7-9.8c-9.3-3.5-13.6-5.6-20.5-6.1
	c-8.3-0.6-11.9,2.5-24.9,5.8c-5.4,1.4-13.2,3.1-22.8,4C72.5,37.2,50,50,27.4,64.5c-0.9,0.6-4.8,1.2-6.7,4.3
	c-2.5,4.1-0.3,9.9,1.5,13.6c-6.5,36.3-13.1,72.7-19.6,109c3.2,0.7,9.5,1.5,15.3-1.6c6.3-3.3,9-9.4,10.6-13.2
	c9.1-21.8,20.1-61.2,21.2-65.1c1.4,0.2,5.1,0.4,9-1.6c4.3-2.2,6.3-5.7,6.9-6.9"/>
<path class="st0" d="M54.7,91.5c0.6,2.2,1.9,5.4,4.4,8.5c5.4,6.6,12.9,8,15.2,8.3"/>
<path class="st0" d="M41.8,142.1c1.2,0.7,4.9,2.5,9.7,1.9c5.8-0.7,9.2-4.4,10-5.4"/>
<path class="st0" d="M57.4,124.5c1.9-2.3,4.6-6.1,6.1-11.4c0.8-2.8,1.2-5.3,1.3-7.4"/>
</svg>
