<?xml version="1.0" encoding="utf-8"?>
<!-- Generator: Adobe Illustrator 22.0.1, SVG Export Plug-In . SVG Version: 6.00 Build 0)  -->
<svg version="1.1" id="Layer_1" xmlns="http://www.w3.org/2000/svg" xmlns:xlink="http://www.w3.org/1999/xlink" x="0px" y="0px"
	 viewBox="0 0 200 200" style="enable-background:new 0 0 200 200;" xml:space="preserve">
<style type="text/css">
	.st0{fill:none;stroke:#FCD032;stroke-width:4;stroke-miterlimit:10;}
</style>
<path class="st0" d="M134.1,170c-1.7,0.6-16.2,5.3-30-3.7c-13.3-8.7-15.1-23.2-15.3-25.1"/>
<path class="st0" d="M104,166.4c-6.9,0.8-12.1-0.4-15.4-1.5c-21.8-7.7-26-36.5-26.2-37.8"/>
<path class="st0" d="M105.8,47.9c-12,3.7-24.1,7.4-36.1,11.2c-2.3,1.9-4.6,3.7-6.9,5.6c-0.4,12.5-0.9,24.9-1.3,37.4
	c0.1,2.6,0.5,6.4,2.6,10.3c3.4,6.5,8.4,7.9,13.8,14.2c2.3,2.7,5.2,6.9,7.3,13.3c1.6,0.6,4,1.2,6.4,0.4c6.2-1.9,8.4-10.8,8.2-16.3
	c-0.4-10.9-10.4-17.3-11.6-18c1.3-3.4,2.8-8.4,3-14.6c0.3-8.2-1.6-14.6-3-18.5"/>
<path class="st0" d="M92.9,86.6c0.4-0.5,2.1-2.5,5.2-3c3.5-0.6,6,1.4,6.4,1.7c10.9,6.7,21.8,13.5,32.7,20.2c1.6,1.2,4.2,3.6,6,7.3
	c0.9,1.9,1.4,3.7,1.7,5.2"/>
<path class="st0" d="M99.4,120.8c2,2.1,4.5,4.4,7.7,6.7c4.1,2.9,8,4.8,11.2,6"/>
<path class="st0" d="M63.3,62.1c-5.6,2.7-11.2,5.4-16.8,8.2c-0.4,0.1-3,1.1-4.3,3.9c-1.3,2.9-0.2,5.6,0,6
	c3.3,11.6,6.6,23.2,9.9,34.8c0.9,0.8,2.4,2,4.3,3.4c4.9,3.7,5.6,3.5,8.6,6c3.9,3.3,4.3,4.9,6.4,5.2c2.5,0.3,4.9-1.4,6.4-3"/>
<path class="st0" d="M39.2,77.6c-2.3,1.1-4.6,2.3-6.9,3.4c-0.4,0.3-2.3,1.9-2.6,4.7c-0.2,2.5,1,4.3,1.3,4.7
	c4.3,8.9,8.6,17.8,12.9,26.6c1.5,0.8,3.8,2.1,6.4,3.9c6.1,4.2,8.3,7.4,12.3,7.5c1.2,0,2.9-0.2,5-1.6"/>
<path class="st0" d="M149.2,150.7c2.9-16.9,5.7-33.8,8.6-50.7c0.4-2.3,0.8-5.9,0-10.3c-0.7-3.6-2-6.3-3-8.2
	c-8.6-22.8-17.2-45.6-25.8-68.3c-0.3-0.6-2-3.6-5.6-4.7c-2.3-0.7-4.3-0.3-5.2,0C108.1,8,97.9,7.5,87.8,7.1
	c-3.9,6.2-7.7,12.3-11.6,18.5c-0.3,1.4-1.2,5.9,1.3,9c3.7,4.6,11.7,2.7,14.2,2.1c11.9-2.8,17.9-14.5,19.3-17.6"/>
<path class="st0" d="M101.9,33.8c1.7,0.6,5.8,1.7,10.7,0.4c6.7-1.7,10.2-6.4,11.2-7.7"/>
<path class="st0" d="M101.9,33.8c1.7,6,3.4,12,5.2,18"/>
<path class="st0" d="M149.2,150.7c2.9,7.9,5.7,15.8,8.6,23.6c-4.2,4.9-10.5,10.7-19.3,15c-5.4,2.7-16.6,8.2-30.9,6
	c-8.5-1.3-14.9-4.9-18.5-7.3c-0.9-8-1.8-16.1-2.7-24.1"/>
</svg>
