<?xml version="1.0" encoding="utf-8"?>
<!-- Generator: Adobe Illustrator 22.0.1, SVG Export Plug-In . SVG Version: 6.00 Build 0)  -->
<svg version="1.1" id="Layer_1" xmlns="http://www.w3.org/2000/svg" xmlns:xlink="http://www.w3.org/1999/xlink" x="0px" y="0px"
	 viewBox="0 0 200 200" style="enable-background:new 0 0 200 200;" xml:space="preserve">
<style type="text/css">
	.st0{fill:none;stroke:#FCD032;stroke-width:4;stroke-miterlimit:10;}
</style>
<path class="st0" d="M122.7,52.5"/>
<path class="st0" d="M122.7,52.5c-2.4,8-2.6,14.5-2.4,18.9c0.3,6.4,1.6,10.2,0.7,18.2c-0.9,8-2.9,10.4-4.2,11.5
	c-3.3,2.9-7.5,2.9-9.4,2.8c-3.5-8-7-16.1-10.5-24.1c-0.8-7.4-1.2-16.1-0.3-25.8c0.4-4.6,1-8.9,1.7-12.9c2.5-2.5,5-3.8,6.6-4.5
	c2.2-1,6.7-2.9,10.5-1c1.6,0.8,2.5,2,3.1,2.8c2.1,2.7,5.5,6.6,10.8,11.5c3.8,9.7,7.7,19.3,11.5,29"/>
<path class="st0" d="M135.9,84.6c1.6-2.9,3.7-6.4,6.3-10.1c4.5-6.6,12-16.1,23-24.8c4.4-3.5,6.8-4.7,9.4-5.6c2.2-0.7,9-3,15.7,0.3
	c3.6,1.7,5.8,4.4,6.9,5.9c-3.3,1.2-8.4,3.5-12.8,8.4c-2.2,2.4-3.4,4.6-5.2,8c-4.3,7.9-3.7,10.1-7.3,16.8c-3.8,7-5,5.4-7.3,10.8
	c-2.7,6.2-1.4,8.9-4.2,15.7c-1.2,3-2.6,5.2-5.6,9.4c-12,17-18.2,25.6-27.2,29.7c-2.3,1-6.2,2.5-11.5,3.1"/>
<path class="st0" d="M96.9,49.5c-1-1.3-3.8-4.6-8.5-5.7c-6.4-1.5-13.6,1.6-16.1,6.6c-1.8,3.7-0.8,7.6,0,10.5
	c1.9,7.1,4.3,17.3,6.6,31.4c6.1,6.7,9.7,11.5,11.9,15c0.6,0.9,1.7,2.8,3.8,3.5c3.4,1.1,7.2-1.6,8.4-2.4c2.2-1.6,3.5-3.4,4.2-4.5"/>
<path class="st0" d="M69.6,54.9c-3.6-2.8-8.5-3.3-12.6-1.4c-4.2,2-6.9,6.2-7,10.8c3.8,11.8,7.7,23.5,11.5,35.3
	c5.1,3.8,10.2,7.7,15.4,11.5c0.3,0.2,4.3,2.2,8.4,0c3.3-1.8,4.2-5.1,4.4-5.7"/>
<path class="st0" d="M50,64.4c-8.4-8.6-16.8-17.2-25.1-25.8c-2.5-6-5.9-9.6-8-11.5c-2.1-1.9-3.6-3.2-5.6-3.1
	C7.4,24.1,4.3,29.8,3.6,34c-1.3,7.4,4,13.3,4.9,14.3C17.7,58.7,26.9,69,36.1,79.4c4.8,19,9.5,37.9,14.3,56.9
	c0.7,3.2,2.9,11.2,10.1,17.5c3.4,3,6.9,4.6,9.4,5.6"/>
<path class="st0" d="M62.3,157.2c1.2,6.6,2.3,13.3,3.5,19.9c3.6,2.1,9.1,5,16.4,6.6c5.8,1.3,19.4,4.4,32.5-2.8
	c3.2-1.8,9.3-5.8,14.3-14c-0.5-5.9-0.9-11.9-1.4-17.8"/>
</svg>
