<?xml version="1.0" encoding="utf-8"?>
<!-- Generator: Adobe Illustrator 22.0.1, SVG Export Plug-In . SVG Version: 6.00 Build 0)  -->
<svg version="1.1" id="Layer_1" xmlns="http://www.w3.org/2000/svg" xmlns:xlink="http://www.w3.org/1999/xlink" x="0px" y="0px"
	 viewBox="0 0 200 200" style="enable-background:new 0 0 200 200;" xml:space="preserve">
<style type="text/css">
	.st0{fill:none;stroke:#FDD031;stroke-width:5;stroke-miterlimit:10;}
</style>
<path class="st0" d="M43.9,158c2.8,1,8.5,2.7,15.6,1.9c1.3-0.1,8.4-1,14.7-5.2c10.3-6.9,12.9-19.1,15.1-29.8
	c1.7-8.2,3.5-22.4-0.5-40.2"/>
<path class="st0" d="M74.7,85.2c1.8,0.7,5.2,1.8,9,0.9c1.3-0.3,5.5-1.4,10.4-8c7.9-10.7,9.2-24.6,9.5-30.7c4.4-2.7,8.8-5.4,13.2-8"
	/>
<path class="st0" d="M113.4,35.9c1.8,1.1,4.6,2.6,8.2,3.5c2.1,0.5,7,1.6,12.8,0c3.5-1,8.3-2.3,10.1-6.7c1.5-3.6,0-7.3-0.5-8.5
	c-8-1.3-16-2.7-23.9-4c-8.6,2.5-17.2,5-25.8,7.4c-1.8,1.4-3.5,2.9-5.3,4.5c-13.8,12.3-24,25.7-31.7,38.6
	c-14.5,31.7-29.1,63.5-43.6,95.2c6.7,9.4,13.5,18.8,20.2,28.2c4,0.8,12.8,2,22.9-1.6c2.8-1,8.9-3.3,14.4-8.8
	c10.1-10.2,5.3-18.8,13.6-26.3c7.3-6.7,14-2.6,26.3-8.2c10.6-4.9,17.1-13.3,20.7-19.2c10.3-5,20.6-9.9,30.9-14.9
	c2-0.6,4.8-1.6,7.2-4c3.2-3.1,2.5-5.1,4.8-8.5c5-7.3,13.4-5.4,15.4-11.4c1-3.1-0.3-6-0.5-6.4c-3.6-7.3-17.4-6-18.6-5.9
	c-11,1.2-18,9-20.2,11.7c-8.2,3.3-16.5,6.6-24.7,9.8c-3.2-3.2-7.6-8.4-10.9-15.7c-2.2-4.7-3.3-9-4-12.5"/>
<path class="st0" d="M89.2,86.6c4.2-0.9,10.9-3,16.5-8.4c3.4-3.2,5.1-6.4,9.6-16c2.8-5.9,6.3-13.4,10.1-22.2"/>
<path class="st0" d="M62.9,61.9c0.4-4.8,0.7-9.6,1.1-14.4c0.7-1.1,1.7-2.8,3.2-4.8c5.5-7.3,11.1-10.9,15.4-14.1
	c4.1-3.1,9.8-8,15.7-15.7c7.2,0.1,14.5,0.2,21.8,0.3c4.9,0,9.8,0,14.6,0c12.6,6.6,25.2,13.1,37.8,19.7c-0.5,1.2-3.5,8.2-10.4,10.1
	c-5,1.4-9.6-0.6-13-2.1c-3.3-1.5-5.8-3.3-7.4-4.6"/>
<path class="st0" d="M103,13.1c3.1-2.9,6.2-5.7,9.3-8.6c6.3-0.5,15-0.4,25,1.9c9.8,2.2,16.8,5.6,19.4,6.9
	c9.1,4.6,15.8,10.2,20.2,14.6c0.1,1.1,0.2,4.2-1.6,7.2c-2.8,4.7-8,5.6-8.7,5.7"/>
</svg>
