<?xml version="1.0" encoding="utf-8"?>
<!-- Generator: Adobe Illustrator 22.0.1, SVG Export Plug-In . SVG Version: 6.00 Build 0)  -->
<svg version="1.1" id="Layer_1" xmlns="http://www.w3.org/2000/svg" xmlns:xlink="http://www.w3.org/1999/xlink" x="0px" y="0px"
	 viewBox="0 0 200 200" style="enable-background:new 0 0 200 200;" xml:space="preserve">
<style type="text/css">
	.st0{fill:none;stroke:#FDD133;stroke-width:4;stroke-miterlimit:10;}
</style>
<g>
	<path class="st0" d="M121.9,157.9c-0.9,10.8-1.7,21.5-2.6,32.4c-3.6,2-8.8,4.5-15.7,5.8c-9.9,1.9-17.8,0.5-22.8-0.4
		c-4.3-0.8-10.1-2.3-16.5-5.4c1.6-8.7,3.3-17.6,4.9-26.3"/>
	<path class="st0" d="M80.5,165.3"/>
	<path class="st0" d="M77.7,165.3c-1.9,0.3-5.3,0.4-8.4-1.3c-4-2.1-5.7-5.9-6.7-8.4c-8.5-21-7.6-41.1-7.6-41.1
		c0.3-6,1.1-14.3,3.8-24.2c2.5-23.2,4.1-39,3.8-43.7c0-0.5-0.2-3,1-5.8c0.5-1.1,1.6-3.5,4.2-4.6c0.3-0.1,3.2-1.3,6,0
		c0.5,0.2,1.4,0.7,2,1.6c1.1,1.7,0.7,3.8,0.6,4.4c-0.5,3.3-0.8,16-0.9,34.6"/>
	<path class="st0" d="M90.7,73.9c-0.5-18.9-1.1-37.7-1.6-56.6c0.5-2.3-0.4-4.7-2.3-6c-2-1.4-4.5-0.9-5.6-0.6
		c-3.4,0.8-5.3,3.4-5.8,4.2c-0.3,7.1-0.7,14.2-1,21.3"/>
	<path class="st0" d="M108.6,73.2c-0.6-15.3-1.3-30.9-2.4-46.8c-0.4-6.2-0.8-12.4-1.3-18.6c-0.2-0.3-2.3-4.4-6.8-4.8
		c-3.7-0.3-6.1,2-6.8,2.6c-2.9,2.7-3,6.4-3,7.1"/>
	<path class="st0" d="M110.4,166.8c1.7-0.4,4.4-1.1,7.1-2.9c4.6-3,6.2-6.7,10.5-13c1.8-2.6,4.5-6.4,8.4-10.9
		c2.2-10.2,4.5-20.4,6.7-30.5c-2.5-2.8-5.4-6.7-7.9-11.7c-2-3.8-3.3-7.4-4.2-10.5c-1.9,0-6.4,0.2-10.5,3.3c-7.6,5.9-6,16.5-5.9,17.6
		c1.3,7.9,6.9,12.3,8.4,13.4"/>
	<path class="st0" d="M97.1,122.8c5-3.1,9.4-4.9,12.5-5.9c3-1,7.2-2.3,8.2-0.9c1,1.4-2.6,4.1-3.2,8.8c-0.5,3.6,1,6.8,2.5,9.2"/>
	<path class="st0" d="M116.7,95.1c-1.5-0.8-3.6-2.1-5-4.4c-2.4-4-1.1-8-0.8-14.2c0.1-3.3,0-8-1.3-13.8c0.9-1.2,3.5-4.1,7.9-5.4
		c3.3-1,6.1-0.7,7.5-0.4c1.1,2,2.4,4.9,3.5,8.4c1.2,3.9,1.6,7,1.9,10.3c0.3,3,0.6,7.1,0.4,11.8"/>
	<path class="st0" d="M71.8,80.6c0.5-1.9,1.9-3.4,3.6-3.8c1.1-0.2,2,0,2.5,0.2"/>
	<path class="st0" d="M86.7,76.2c2.5-0.7,5-1.5,7.5-2.2"/>
	<path class="st0" d="M104.3,73.6c1.8,0,3.6,0,5.4,0"/>
</g>
</svg>
