<?xml version="1.0" encoding="utf-8"?>
<!-- Generator: Adobe Illustrator 22.0.1, SVG Export Plug-In . SVG Version: 6.00 Build 0)  -->
<svg version="1.1" id="Layer_1" xmlns="http://www.w3.org/2000/svg" xmlns:xlink="http://www.w3.org/1999/xlink" x="0px" y="0px"
	 viewBox="0 0 200 200" style="enable-background:new 0 0 200 200;" xml:space="preserve">
<style type="text/css">
	.st0{fill:none;stroke:#FDD133;stroke-width:4;stroke-miterlimit:10;}
</style>
<path class="st0" d="M126.1,81.8c-2.6,1.5-7,3.8-13,4.6c-4.3,0.5-7.9,0.2-10.4-0.3"/>
<path class="st0" d="M107.6,81.8c-2.2,2.6-6.2,6.6-12.4,9.4c-5.3,2.5-13.5,6.6-21.2,2.9c-6.8-3.3-9.2-10.8-9.8-13
	c6.2-0.3,10.2-2.2,12.7-3.9c3.9-2.6,5.1-5.4,11.1-9.4c2.2-1.5,3.8-2.6,6.2-3.6c6.9-2.8,10.9-0.8,19.2-2c5.8-0.8,7.1-2.2,11.4-3.3
	c16.5-3.9,36.1,8.1,45.3,21.8c2.4,3.7,5.8,8.8,4.2,14.3c-1.5,5.3-6.8,8.3-8.8,9.4c-4.2,2.4-8.2,2.8-10.4,2.9"/>
<path class="st0" d="M68.6,89.8c-19.3-1.3-38.6-2.6-57.9-3.9c-0.5-0.1-5.6-1.4-7.7-6.4c-0.3-0.6-2.2-5.1,0-8.5
	c0.5-0.8,1.4-1.8,3.8-2.8c5.3-2.2,10.8-1.5,14.1-0.8"/>
<path class="st0" d="M83.7,71.1c-18.4-0.4-36.8-0.7-55.3-1.1c-0.8,0.1-3,0.3-5.1-1c-2.5-1.5-4-4.3-3.8-7.2c0.1-3.1,2.1-6,5.1-7.2
	c11.2-2.1,22.4-4.1,33.6-6.2c14.3,0.3,28.6,0.7,42.9,1c12.6,3.2,25.2,6.4,37.8,9.6"/>
<path class="st0" d="M75.9,94.9c-0.9,0.8-2.5,2.5-3.4,5c-1.4,4-0.6,8.8,2.1,11.9c0,0,2,2.2,5.4,3.3c10.9,3.3,40.8-10.4,42.9-11.3"/>
<path class="st0" d="M127.3,102.3c-2.4-0.8-6.1-2.4-9.8-5.7c-4.2-3.7-6.4-7.7-7.5-10.1"/>
<path class="st0" d="M96,90.8c1.8-0.9,4.8-2.1,8.7-2.2c2.8-0.1,5.2,0.3,6.8,0.8"/>
<path class="st0" d="M85.9,115.6c-0.4,1.1-1.1,4,0,7.3c1.3,3.7,4.7,6.7,8.3,7.1c2.8,0.3,4.8-0.9,7.4-2.4c13.9-7.6,18.6-5.8,22-11.6
	c0.5-0.9,2.5-4.6,1.5-8.9c-0.5-2.3-1.7-3.9-2.5-4.9"/>
<path class="st0" d="M95.8,130.8c3.2,1.6,5.9,2.7,7.7,3.4c0,0,19.6,7.4,48.2,1.5c1.1-0.2,3-0.7,5.1-2.1c2.5-1.7,3.8-4,4.5-5.4"/>
<path class="st0" d="M172.5,84.7c8.4,6.9,16.7,13.7,25.1,20.6c-0.2,8.1-2.6,14.1-4.2,17.3c-4.6,9.4-11.7,14.4-15.8,17.3
	c-6,4.2-11.7,6.3-15.5,7.4c-3.5-3.9-6.9-7.7-10.4-11.6"/>
</svg>
