<?xml version="1.0" encoding="utf-8"?>
<!-- Generator: Adobe Illustrator 22.0.1, SVG Export Plug-In . SVG Version: 6.00 Build 0)  -->
<svg version="1.1" id="Layer_1" xmlns="http://www.w3.org/2000/svg" xmlns:xlink="http://www.w3.org/1999/xlink" x="0px" y="0px"
	 viewBox="0 0 200 200" style="enable-background:new 0 0 200 200;" xml:space="preserve">
<style type="text/css">
	.st0{fill:none;stroke:#FDD133;stroke-width:2;stroke-miterlimit:10;}
</style>
<path class="st0" d="M85.3,129c3.5,0.4,6.3,0.2,8.3,0c2.9-0.4,12.8-1.6,19.2-9.5c1.8-2.2,2.8-4.3,3.3-5.6
	c10.8-4.1,16.1-8.9,19.1-12.7c1-1.3,2.9-4.1,6.5-6.8c3.5-2.7,6.9-4.1,9.4-4.9c-0.4-1.3-1.3-3.9-3.8-5.6c-3.7-2.5-8.3-1-11.3,0
	c-4.4,1.4-7.4,4.1-9.2,6c-5.6,2.3-11.2,4.6-16.8,6.8c0-4.8-0.3-10-0.8-15.6c-0.5-4.9-1.1-9.6-1.9-13.8c-1.2-12.2-2.4-24.4-3.6-36.6
	c-0.5-3.2-2.3-5.8-4.9-6.8c-0.5-0.2-3.2-1.1-5.2,0.5c-1.1,0.9-1.5,2.2-1.6,2.8c0.4,12.2,0.8,24.5,1.2,36.7"/>
<path class="st0" d="M94.4,128.9c-1.9,5.7-3.8,11.5-5.7,17.2c-2.1,1.5-6.5,4.1-12.6,5c-2.7,0.4-8.5,0.8-15-2
	c-3.8-1.6-6.5-3.8-8.2-5.4c1.6-5.2,3.2-10.4,4.8-15.6c-1.9-8.5-3.5-18.1-4.4-28.5c0,0-0.8-4.1-0.6-11.4c0.1-5.7,0.9-7.9,2.4-9.4
	c1.2-1.2,2.6-1.6,5.4-2.4c3.4-1,6.4-1.3,8.4-1.4C71,84,73,92.9,75.1,101.8c-1.6,1-4.1,2.1-6.2,1.2c-2.1-1-2.6-3.7-3.4-6.6
	c-0.9-3.3-2.6-7.9-5.8-13.2"/>
<path class="st0" d="M68.3,74.8c1.4-2.9,3.3-4.7,4.4-5.7c1.6-1.3,3.2-2.7,5.6-2.8c1.9-0.1,3.4,0.7,4.2,1.2"/>
<path class="st0" d="M84.3,102c0-3.4-0.1-6.9-0.2-10.4c-0.3-8.4-0.8-16.5-1.6-24.1c0.5-0.5,1.3-1.2,2.4-1.8c1.7-1,5.2-3.1,8.2-1.8
	c3.1,1.4,3.6,4.4,3.8,5.7c0.4,2.6-0.2,5.8-0.2,6.9c-0.1,11.5-0.2,13.6-0.8,23.3c-0.1,1.1-1.8,3-4.2,3.8c-1.8,0.6-3.6,0.1-4.2,0
	C85.9,103.2,84.9,102.5,84.3,102z"/>
<path class="st0" d="M75.1,101.8c0.4,0.5,1.5,1.8,3.4,2.4c3.5,1,6.3-1.5,6.5-1.7"/>
</svg>
