<?xml version="1.0" encoding="utf-8"?>
<!-- Generator: Adobe Illustrator 22.0.1, SVG Export Plug-In . SVG Version: 6.00 Build 0)  -->
<svg version="1.1" id="Layer_1" xmlns="http://www.w3.org/2000/svg" xmlns:xlink="http://www.w3.org/1999/xlink" x="0px" y="0px"
	 viewBox="0 0 200 200" style="enable-background:new 0 0 200 200;" xml:space="preserve">
<style type="text/css">
	.st0{fill:none;stroke:#FDD133;stroke-width:4;stroke-miterlimit:10;}
</style>
<path class="st0" d="M53.3,75.3c7.3,4.9,14.7,9.8,22,14.7c2.4,12,4.9,23.9,7.3,35.9c0.8,1.3,2.7,3.7,6,5.2c6.2,2.8,12.1,0,13-0.4
	c1.9-12.2,3.7-24.5,5.6-36.7c0.2-1,0.5-3.7-0.9-6.5c-0.7-1.5-1.7-2.5-2.4-3.1C99.2,73.5,94.4,62.8,89.7,52"/>
<path class="st0" d="M99.1,131.6c0.4,1.7,1.2,4.5,3.5,7c5.7,6.4,14.9,5,15.7,4.9c1.1-1.2,2.1-2.5,3.1-3.8
	c13.3-17.5,15.3-38.5,14.6-54c-9.4-17.5-18.8-35.1-28.2-52.6c-2.7-2.7-6.9-5.8-11.5-5.2c-5.4,0.7-5.8,6-12.2,8
	c-6.9,2.2-10.9-2.4-16.4,0.7c-3,1.7-4.3,4.4-5.2,6.3c-8.4,16.6-16.1,17.5-31.7,46c-1,1.9-2.8,4.8-4.5,8.7c-1.7,3.7-2.8,6.9-3.5,9.1
	c-6.7,8.4-13.5,16.7-20.2,25.1c1.1,6.4,4.4,19,14.6,30.7c13.4,15.2,30.4,18.9,36.6,20.2c9.1,1.9,16.8,1.6,22,1
	c5.7-8.6,11.4-17.2,17.1-25.8"/>
<path class="st0" d="M36.7,134.4c3.3,2.6,10.1,7.2,19.9,9.1c8.3,1.6,15.2,0.6,19.2-0.3c1.6,2.1,4.2,4.9,7.7,7.7
	c3.5,2.8,8,6.4,13.6,7.3c4.1,0.7,7.4-0.2,16-3.8c6-2.5,13.9-6.1,23-10.8"/>
<path class="st0" d="M132.2,73c1.5-1.2,4.9-3.5,9.8-3.8c1.8-0.1,5.1-0.3,8.4,1.7c3.9,2.5,5,6.8,5.2,7.7c1.4,5.7-1.4,11-3.5,14.6
	c-7,12.2-15.6,23.1-21.7,30.3"/>
<path class="st0" d="M128.3,128.4c0.3,2.6,1.4,8.1,5.7,12.6c1.5,1.5,3.9,4,7.7,4.5c3.2,0.4,5.8-0.8,8-2.1c9-5.1,18-14.6,21.3-18.1
	c4.9-15,9.8-30,14.6-45c0.4-1.7,0.6-4.2,0-7c-0.9-4.1-3.4-6.8-4.9-8.4c-4.7-4.9-22.1-20.3-46.4-40.4c-1.8-0.8-4.5-1.6-7.7-1.4
	c-3.6,0.3-6.3,1.8-11.5,4.9c-2.1,1.2-4.6,2.9-7.3,4.9"/>
<path class="st0" d="M152.5,36.8c2.3-0.6,6.4-1.3,10.8,0c3.3,1,5.7,2.7,7.3,4.2c9.1,8,15.1,21.8,23.7,41.1c1.4,3.2,2.6,5.8,3.1,7
	c0.1,2.3,0,5.5-1,9.1c-0.8,2.7-1.7,4.5-2.1,5.2c-2.4,4.7-7.6,15.6-14.6,30.7c-1.2,1.8-3.1,4.4-5.6,7.3c-5.5,6.4-9.5,11.1-15.7,12.2
	c-1.6,0.3-5.5,1-9.1-1.4c-3.2-2.2-4.2-5.6-4.5-6.7"/>
</svg>
