<?xml version="1.0" encoding="utf-8"?>
<!-- Generator: Adobe Illustrator 22.0.1, SVG Export Plug-In . SVG Version: 6.00 Build 0)  -->
<svg version="1.1" id="Layer_1" xmlns="http://www.w3.org/2000/svg" xmlns:xlink="http://www.w3.org/1999/xlink" x="0px" y="0px"
	 viewBox="0 0 200 200" style="enable-background:new 0 0 200 200;" xml:space="preserve">
<style type="text/css">
	.st0{fill:none;stroke:#FCD032;stroke-width:4;stroke-miterlimit:10;}
</style>
<path class="st0" d="M170.3,99.5c-2.5,0.2-6,0.7-9.6,2.8c-7.5,4.4-7.1,11.1-13.5,16.3c-5,4.1-7.6,1.9-19.1,5.2
	c-2.1,0.6-13.6,4-25.1,12.3c-5,3.7-12.7,10.2-19.5,20.7c-0.7,0.4-6.7,3.2-10.8,0.4c-5.1-3.4-3.1-12.5-2.8-13.9
	c2.1-9.7,10.6-15.9,17.1-20.7c6.8-5,9.9-5.4,14.7-10.8c3.7-4.1,5.9-8.2,7.2-11.2"/>
<path class="st0" d="M150.1,115.6c3,6.6,6,13.2,9,19.7c3.9-0.3,11.3-1.4,18.7-6.4c8-5.4,11.7-12.3,13.5-15.9
	c3.5-6.9,4.6-13.2,4.9-17.1c-7.1-8.6-14.2-17.3-21.3-25.9c-4.9-2.3-12.5-5.2-21.9-6c-6-0.5-11,0.2-21.1,1.6
	c-20.2,2.8-30.5,6.8-37,5.2c-0.8-0.2-3.6-1-6.8,0c-2.3,0.8-3.8,2.2-4,2.4c-2.6,2.4-22.5,7-73.7,15.1c-4-0.4-7.5,2.4-8,6
	c-0.5,3.9,2.7,7.9,7.2,8c22-1.6,44.1-3.2,66.1-4.8c2.2,0,5.6,0.2,9.6,1.6c4.2,1.5,7.1,3.7,8.8,5.2"/>
<path class="st0" d="M67.1,98.2c-3.3,7-6.6,13.9-9.9,20.9c-0.5,1.3-0.9,2.9-1.2,4.8c-0.3,2-0.4,3.7-0.4,5.2
	c0.3,15.4,0.5,30.8,0.8,46.2c1.6,0.6,5.4,1.6,9.2,0c5.5-2.4,8.9-9.8,7.2-17.9"/>
<path class="st0" d="M76.7,131.2c0.6-0.6,8.4-11.1,5.9-19.4c-0.4-1.2-0.1-1,0.2-2.2c1.8,0,2.4,0.5,6.2,1.4
	c5.7,1.3,10.6,0.7,13.4,0.1"/>
</svg>
