<?xml version="1.0" encoding="utf-8"?>
<!-- Generator: Adobe Illustrator 22.0.1, SVG Export Plug-In . SVG Version: 6.00 Build 0)  -->
<svg version="1.1" id="Layer_1" xmlns="http://www.w3.org/2000/svg" xmlns:xlink="http://www.w3.org/1999/xlink" x="0px" y="0px"
	 viewBox="0 0 200 200" style="enable-background:new 0 0 200 200;" xml:space="preserve">
<style type="text/css">
	.st0{fill:none;stroke:#FCD032;stroke-width:4;stroke-miterlimit:10;}
</style>
<path class="st0" d="M61,156.2c-3.8-0.9-9-2.6-13.8-6.6C36.8,141,35.4,128.2,33.4,107c-1.8-19.5-2.8-31.6,4.2-43.8
	c2.2-3.9,6.8-11.6,16.2-15.6C59.1,45.3,64,45,67,45.1c3.4,6.6,7.4,16.1,9.6,28.2c2.2,11.9,1.9,22.2,1.2,29.4
	c-2.2,0.6-7.4,1.9-12.6-0.6c-5.1-2.4-7.5-7.1-9-10.2c-4-8.1-1.9-12.7-6.6-19.2c-1.7-2.3-3.5-3.9-4.8-4.8"/>
<path class="st0" d="M65.8,45.1c0-1.3,0.2-7.9,5.4-12.6c5.2-4.7,13.4-5.5,20.4-1.8c3.1,9.4,6.3,21.6,7.8,36c1.5,14,1,26.3,0,36
	c-3.1,0.7-7.2,1.3-12,1.2c-3.7-0.1-7-0.6-9.6-1.2"/>
<path class="st0" d="M91.7,112.4c3.8-5.1,8.4-10.7,14-16.3c8.1-8.2,16.1-14.4,23-19"/>
<path class="st0" d="M47.2,149.6c-1.3,13,0.9,24.9,0.9,37.8c22.7,13,56.1,16.2,75.5-5.4c-1.1-7.6,1.1-16.2,1.3-23.6"/>
<path class="st0" d="M100.3,90.1c2.4,1.5,4.8,3.1,7.2,4.6"/>
<path class="st0" d="M93.3,35.9c1.3-6.1,1.3-12.5,4.5-17.9c8.6-3.2,21.6-7.6,28.4,2.7"/>
<path class="st0" d="M133.6,80.6c-5.4-8.2-8-15.5-9.4-20.3c0,0-7.2-24.7,4.7-50.8c1.1-2.3,2.7-5.2,5.8-6.5c4.1-1.7,8.5,0.2,10.2,1.1
	c-0.5,5.7-1,11.4-1.5,17.1"/>
<path class="st0" d="M151.8,61c3.3,10.3,6.5,20.6,9.8,30.8c-1.5,4.5-3.9,11.1-6.9,19.2c-10.4,28.1-14.3,34-19.2,38.8
	c-3.2,3.2-8.9,7.8-18.1,11.3"/>
<path class="st0" d="M144.4,9.7c1.9-0.4,6.7-1.1,11.7,1.2c3.3,1.5,5.3,3.7,6.5,5.1c4.4,5,5.7,10.7,6.2,13.8
	c-1.4,8.6-3.6,15.5-5.4,20.3c-2.2,5.9-3.7,8.2-6.2,9.8c-3.5,2.3-9.1,3.2-13.1,0.7c-4.8-3-5.2-9.6-5.4-13.4
	c-0.5-8.3,2.8-11.9,4.7-22.1C144.6,18.6,144.6,13.2,144.4,9.7z"/>
</svg>
