<?xml version="1.0" encoding="utf-8"?>
<!-- Generator: Adobe Illustrator 22.0.1, SVG Export Plug-In . SVG Version: 6.00 Build 0)  -->
<svg version="1.1" id="Layer_1" xmlns="http://www.w3.org/2000/svg" xmlns:xlink="http://www.w3.org/1999/xlink" x="0px" y="0px"
	 viewBox="0 0 200 200" style="enable-background:new 0 0 200 200;" xml:space="preserve">
<style type="text/css">
	.st0{fill:none;stroke:#FCD032;stroke-width:4;stroke-miterlimit:10;}
</style>
<path class="st0" d="M111.5,156.8c1.2,0.1,8.5,1,14.4-4.3c3.7-3.3,4.9-7.4,5.3-9.1c1.8-10.1,3.5-20.1,5.3-30.2
	c-2.3-3.6-4.7-7.3-7.2-11c-2.2-3.3-4.5-6.5-6.7-9.6c-3.1-0.7-6.9-1.9-11-3.8c-6-2.8-10.4-6.3-13.4-9.1c-1.9,1-4.8,3.1-6.2,6.7
	c-2.5,6.5,1.7,13.4,5.3,16.8c0.7,0.7,1.6,1.4,9.1,5.3c4.3,2.2,8,4,10.5,5.3"/>
<path class="st0" d="M102.4,107c0.1,1.6,0.8,6.9,5.3,11c2.1,1.9,4.3,2.9,5.7,3.4"/>
<path class="st0" d="M125.9,152.5c-2.7,11-5.4,22-8.1,32.9c-7.7,5.9-14,6.6-17.2,6.5c-4.3,0-9.4-2-19.6-5.9c-4-1.6-7.3-2.9-9.5-3.9
	c1.9-6.6,3.8-13.3,5.6-19.9"/>
<path class="st0" d="M82.4,163.4c-3.1-0.6-7.5-1.9-10.4-5.6c-1.6-2-2-3.9-3-7.1c-1-3.3-2.7-8.2-5.3-14c-1.3-11.4-2.6-22.8-3.9-34.2
	c2-2.1,4.6-4.3,7.7-6.5c4.8-3.4,9.4-5.5,13.1-6.8c3,1.6,6.9,4.3,9.8,8.9c1.5,2.4,2.1,4.3,3.3,7.7c1.3,3.7,3.3,8.9,6.2,15.2
	c-1,1.2-3.3,3.7-6.2,3.6c-2.9-0.1-4.9-2.6-8-6.5c-4.2-5.3-4-7.4-6.8-9.2c-1.8-1.2-4.8-2.2-9.8-1.2"/>
<path class="st0" d="M71.4,91.8c-0.2-4-0.1-12.6,5.3-19.9c1.6-2.2,3.8-5,7.7-5.9c4.2-1,7.8,1,8.6,1.5c7.3,4.1,7.6,13.8,7.6,14.5"/>
<path class="st0" d="M79.1,82.6c2,3.2,4,6.4,6,9.5"/>
<path class="st0" d="M131.2,105.2c-0.6-5-0.9-10.7-0.7-16.9c0.1-4.3,0.4-8.2,0.9-11.9c2.3-16.6,4.6-33.3,6.8-49.9
	c1.9-3.8,0.3-8.4-3.3-10.1c-3.7-1.8-8.6,0.2-10.1,4.5c-5,16.9-9.9,33.9-14.9,50.8c-0.8-0.1-1.6-0.3-2.4-0.4
	c-0.1-19.9-0.2-39.8-0.3-59.6c0.7-5.3-3.6-9.5-7.7-9.4c-3.7,0.2-7.3,3.9-7,8.7c-1.6,18.3-3.2,36.5-4.8,54.8"/>
</svg>
