<?xml version="1.0" encoding="utf-8"?>
<!-- Generator: Adobe Illustrator 22.0.1, SVG Export Plug-In . SVG Version: 6.00 Build 0)  -->
<svg version="1.1" id="Layer_1" xmlns="http://www.w3.org/2000/svg" xmlns:xlink="http://www.w3.org/1999/xlink" x="0px" y="0px"
	 viewBox="0 0 200 200" style="enable-background:new 0 0 200 200;" xml:space="preserve">
<style type="text/css">
	.st0{fill:none;stroke:#FCD032;stroke-width:4;stroke-miterlimit:10;}
</style>
<path class="st0" d="M117.9,145.4c-1.8-2.9-4.8-6.6-9.5-8.3c-5.4-2-9.8-0.3-13.7,0c-6,0.5-14.6-2.1-26.2-15.5
	c-0.1-0.5-1.9-9,4.2-14.9c4.2-4.1,9.5-4.2,10.7-4.2c3.8-0.4,9.4-0.5,15.5,1.8c6.6,2.5,7.1,5.3,13.7,7.7c8.7,3.2,11.3-0.3,18.4,3
	c1.4,0.6,10.6,4.9,11.9,13.7c1,6.6-2.9,13.6-9.5,17.8"/>
<path class="st0" d="M142.5,134.9c2.2,7.6,1.9,13.9,1.5,17.6c-0.7,5.6-1.5,11.7-6.4,15.6c-3,2.3-6.4,2.9-8.5,3"/>
<path class="st0" d="M90.4,178.3c0.8,5.3,1.6,10.6,2.4,15.9c4.6,1.7,11,3.3,18.6,3c4-0.1,14.8-0.6,25.1-8.1c4.4-3.2,7.4-6.7,9.1-9.1
	c-1.5-5.4-3.1-10.7-4.6-16.1"/>
<path class="st0" d="M141.9,125.3c-0.8-9.7-1.6-19.4-2.4-29.1c-3.7-9.4-7.5-18.8-11.2-28.1c-4.4-9.4-8.8-18.8-13.2-28.1
	c-9.5-11-19-21.9-28.5-32.9c-2.8-4.7-8.5-6.3-12.2-4.4C70,4.9,68.1,11.9,72,17.3c9.1,16.3,18.3,32.5,27.4,48.8"/>
<path class="st0" d="M99.5,67.8c-1.7-0.9-4.7-2.3-7.8-1.4c-2.8,0.9-4.4,3.3-5.1,4.4c-2.7,4.1-7.1,9.7-14.9,18
	c-0.4,1.7-0.8,3.9-0.7,6.4c0.1,4.8,1.7,8.4,2.7,10.6"/>
<path class="st0" d="M98.9,104.4c-0.1-3.6-0.8-8.8-3.7-14.2c-0.8-1.4-1.6-2.6-2.4-3.7"/>
<path class="st0" d="M78.1,81.8C77,81.3,75,80.5,72.8,81c-2.6,0.6-4.2,2.5-5.4,4.1C57,98.3,55.5,101.8,54.5,105.4
	c-0.6,2.3-1,4.3-0.3,6.4c0.8,3,3,4.6,4.7,6.1c10,8.5,10.9,14.9,16.6,14.9c0.9,0,2.2-0.1,3.9-1"/>
<path class="st0" d="M58.5,94.5c-0.6-0.2-4-1.3-7.5,0.7c-2.7,1.5-3.8,4-4.1,4.7c-0.3,7.7-0.7,15.4-1,23c7,6.6,14,13.1,21,19.7
	c1.5,0.7,3.5,1.4,6.1,1.7c4.4,0.5,8-0.6,9.8-1.4c1.7-2.2,3.4-4.5,5.1-6.7"/>
<path class="st0" d="M54.6,131c5.8,10.4,12,20.7,18.5,30.9c4.9,7.8,9.4,14.4,17.3,16.3c3.4,0.8,6.4,0.4,8.5,0"/>
<path class="st0" d="M16.5,24.9c11.8-0.7,23.6-1.3,35.5-2c-11.5,10.7-23,21.4-34.5,32c13-1.5,25.9-3,38.9-4.4"/>
<path class="st0" d="M48.2,43.2c2.7,2.4,5.5,4.9,8.2,7.3c-2.2,3.4-4.4,6.7-6.6,10.1"/>
</svg>
