<?xml version="1.0" encoding="utf-8"?>
<!-- Generator: Adobe Illustrator 22.0.1, SVG Export Plug-In . SVG Version: 6.00 Build 0)  -->
<svg version="1.1" id="Layer_1" xmlns="http://www.w3.org/2000/svg" xmlns:xlink="http://www.w3.org/1999/xlink" x="0px" y="0px"
	 viewBox="0 0 450 150" style="enable-background:new 0 0 450 150;" xml:space="preserve">
<style type="text/css">
	.st0{fill:#FFFFFF;}
</style>
<g>
	<path class="st0" d="M183.2,17.5c9.3,0,16.6,3.3,21.9,9.8c5.4,6.5,8,15.3,8,26.3c0,15.6-4.3,29.9-13,42.8
		c-8.7,12.9-22.3,25.3-40.8,37.2l-9.6-10.9c12.5-10.1,22.2-19.7,29.1-28.7c7-9,10.7-16.9,11.3-23.9l-1.7-1.3c-0.6,1.2-2,2.1-4.1,2.8
		c-2.2,0.7-4.4,1.1-6.7,1.1c-6.7,0-12.1-2.5-16.3-7.6c-4.2-5.1-6.3-11.5-6.3-19.3c0-8.4,2.6-15.2,7.8-20.4S174.8,17.5,183.2,17.5z
		 M270.2,17.5c9.3,0,16.6,3.3,21.9,9.8c5.4,6.5,8,15.3,8,26.3c0,15.6-4.3,29.9-13,42.8c-8.7,12.9-22.3,25.3-40.8,37.2l-9.6-10.9
		c12.5-10.1,22.2-19.7,29.1-28.7c7-9,10.7-16.9,11.3-23.9l-1.7-1.3c-0.6,1.2-2,2.1-4.1,2.8c-2.2,0.7-4.4,1.1-6.7,1.1
		c-6.7,0-12.1-2.5-16.3-7.6c-4.2-5.1-6.3-11.5-6.3-19.3c0-8.4,2.6-15.2,7.8-20.4S261.8,17.5,270.2,17.5z"/>
</g>
</svg>
