<?xml version="1.0" encoding="utf-8"?>
<!-- Generator: Adobe Illustrator 22.0.1, SVG Export Plug-In . SVG Version: 6.00 Build 0)  -->
<svg version="1.1" id="Layer_1" xmlns="http://www.w3.org/2000/svg" xmlns:xlink="http://www.w3.org/1999/xlink" x="0px" y="0px"
	 viewBox="0 0 450 150" style="enable-background:new 0 0 450 150;" xml:space="preserve">
<style type="text/css">
	.st0{fill:#FFFFFF;}
</style>
<g>
	<path class="st0" d="M179.8,133.5c-9.3,0-16.6-3.3-21.9-9.8c-5.4-6.5-8-15.3-8-26.3c0-15.6,4.3-29.9,13-42.8
		c8.7-12.9,22.3-25.3,40.8-37.2l9.6,10.9c-12.5,10.1-22.2,19.7-29.1,28.7c-7,9-10.7,16.9-11.3,23.9l1.7,1.3c0.6-1.2,2-2.1,4.1-2.8
		c2.2-0.7,4.4-1.1,6.7-1.1c6.7,0,12.1,2.5,16.3,7.6c4.2,5.1,6.3,11.5,6.3,19.3c0,8.4-2.6,15.2-7.8,20.4
		C195,130.9,188.2,133.5,179.8,133.5z M266.7,133.5c-9.3,0-16.6-3.3-21.9-9.8c-5.4-6.5-8-15.3-8-26.3c0-15.6,4.3-29.9,13-42.8
		c8.7-12.9,22.3-25.3,40.8-37.2l9.6,10.9C287.7,38.5,278,48.1,271.1,57c-7,9-10.7,16.9-11.3,23.9l1.7,1.3c0.6-1.2,2-2.1,4.1-2.8
		c2.2-0.7,4.4-1.1,6.7-1.1c6.7,0,12.1,2.5,16.3,7.6c4.2,5.1,6.3,11.5,6.3,19.3c0,8.4-2.6,15.2-7.8,20.4
		C281.9,130.9,275.1,133.5,266.7,133.5z"/>
</g>
</svg>
